<svg width="56" height="56" viewBox="0 0 56 56" fill="none" xmlns="http://www.w3.org/2000/svg">
<path d="M39.667 8.16667H16.3337C9.33366 8.16667 4.66699 11.6667 4.66699 19.8333V36.1667C4.66699 44.3333 9.33366 47.8333 16.3337 47.8333H39.667C46.667 47.8333 51.3337 44.3333 51.3337 36.1667V19.8333C51.3337 11.6667 46.667 8.16667 39.667 8.16667ZM14.5837 33.8333C14.5837 34.79 13.7903 35.5833 12.8337 35.5833C11.877 35.5833 11.0837 34.79 11.0837 33.8333V22.1667C11.0837 21.21 11.877 20.4167 12.8337 20.4167C13.7903 20.4167 14.5837 21.21 14.5837 22.1667V33.8333ZM28.0003 35C24.127 35 21.0003 31.8733 21.0003 28C21.0003 24.1267 24.127 21 28.0003 21C31.8737 21 35.0003 24.1267 35.0003 28C35.0003 31.8733 31.8737 35 28.0003 35ZM44.917 33.8333C44.917 34.79 44.1237 35.5833 43.167 35.5833C42.2103 35.5833 41.417 34.79 41.417 33.8333V22.1667C41.417 21.21 42.2103 20.4167 43.167 20.4167C44.1237 20.4167 44.917 21.21 44.917 22.1667V33.8333Z" fill="#F49928"/>
</svg>
