<svg width="56" height="56" viewBox="0 0 56 56" fill="none" xmlns="http://www.w3.org/2000/svg">
<path d="M11.6663 35C9.47301 35 7.44301 35.77 5.83301 37.0533C3.68634 38.7567 2.33301 41.3933 2.33301 44.3333C2.33301 49.49 6.50967 53.6667 11.6663 53.6667C14.023 53.6667 16.1697 52.78 17.8263 51.3333C19.763 49.63 20.9997 47.1333 20.9997 44.3333C20.9997 39.1767 16.823 35 11.6663 35ZM13.9997 44.9167C13.9997 45.5233 13.673 46.1067 13.1597 46.41L10.243 48.16C9.96301 48.3467 9.63634 48.4167 9.33301 48.4167C8.74967 48.4167 8.16634 48.1133 7.83967 47.5767C7.34967 46.7367 7.60634 45.6633 8.44634 45.1733L10.523 43.9367V41.4167C10.4997 40.46 11.293 39.6667 12.2497 39.6667C13.2063 39.6667 13.9997 40.46 13.9997 41.4167V44.9167Z" fill="#F49928"/>
<path d="M34.6497 9.21667V18.0833H31.1497V9.21667C31.1497 8.58667 30.5897 8.28334 30.2163 8.28334C30.0997 8.28334 29.983 8.30667 29.8663 8.35334L11.363 15.33C10.1263 15.7967 9.33301 16.9633 9.33301 18.2933V19.8567C7.20967 21.4433 5.83301 23.9867 5.83301 26.8567V18.2933C5.83301 15.5167 7.53634 13.0433 10.1263 12.0633L28.653 5.06334C29.1663 4.87667 29.703 4.78334 30.2163 4.78334C32.5497 4.78334 34.6497 6.67334 34.6497 9.21667Z" fill="#F49928"/>
<path d="M50.1669 33.8333V36.1667C50.1669 36.7967 49.6769 37.31 49.0236 37.3333H45.6169C44.3803 37.3333 43.2603 36.4233 43.1669 35.21C43.0969 34.4867 43.3769 33.81 43.8436 33.3433C44.2636 32.9 44.8469 32.6667 45.4769 32.6667H49.0003C49.6769 32.69 50.1669 33.2033 50.1669 33.8333Z" fill="#F49928"/>
<path d="M45.453 30.2167H47.833C49.1163 30.2167 50.1663 29.1667 50.1663 27.8833V26.8567C50.1663 22.0267 46.223 18.0833 41.393 18.0833H14.6063C12.623 18.0833 10.803 18.7367 9.33301 19.8567C7.20967 21.4433 5.83301 23.9867 5.83301 26.8567V31.01C5.83301 31.8967 6.76634 32.4567 7.60634 32.1767C8.91301 31.7333 10.2897 31.5 11.6663 31.5C18.7363 31.5 24.4997 37.2633 24.4997 44.3333C24.4997 46.0133 24.0563 47.8567 23.3563 49.49C22.983 50.33 23.5663 51.3333 24.4763 51.3333H41.393C46.223 51.3333 50.1663 47.39 50.1663 42.56V42.1167C50.1663 40.8333 49.1163 39.7833 47.833 39.7833H45.803C43.563 39.7833 41.4163 38.4067 40.833 36.2367C40.3663 34.4633 40.9263 32.7367 42.093 31.6167C42.9563 30.73 44.1463 30.2167 45.453 30.2167ZM32.6663 29.75H20.9997C20.043 29.75 19.2497 28.9567 19.2497 28C19.2497 27.0433 20.043 26.25 20.9997 26.25H32.6663C33.623 26.25 34.4163 27.0433 34.4163 28C34.4163 28.9567 33.623 29.75 32.6663 29.75Z" fill="#F49928"/>
</svg>
