<svg width="56" height="56" viewBox="0 0 56 56" fill="none" xmlns="http://www.w3.org/2000/svg">
<path d="M46.5967 4.08331H39.7367C36.7733 4.08331 35 5.85665 35 8.81998V15.68C35 18.6433 36.7733 20.4166 39.7367 20.4166H46.5967C49.56 20.4166 51.3333 18.6433 51.3333 15.68V8.81998C51.3333 5.85665 49.56 4.08331 46.5967 4.08331ZM47.11 11.8066C46.83 12.0866 46.4567 12.2266 46.0833 12.2266C45.71 12.2266 45.3367 12.0866 45.0567 11.8066L44.6367 11.3866V16.6133C44.6367 17.43 43.9833 18.0833 43.1667 18.0833C42.35 18.0833 41.6967 17.43 41.6967 16.6133V11.3866L41.2767 11.8066C40.7167 12.3666 39.7833 12.3666 39.2233 11.8066C38.6633 11.2466 38.6633 10.3133 39.2233 9.75331L42.14 6.83665C42.2567 6.71998 42.42 6.62665 42.5833 6.55665C42.63 6.53331 42.6767 6.53331 42.7233 6.50998C42.84 6.46331 42.9567 6.43998 43.0967 6.43998C43.1433 6.43998 43.19 6.43998 43.2367 6.43998C43.4 6.43998 43.54 6.46331 43.7033 6.53331C43.7267 6.53331 43.7267 6.53331 43.75 6.53331C43.9133 6.60331 44.0533 6.69665 44.17 6.81331C44.1933 6.83665 44.1933 6.83665 44.2167 6.83665L47.1333 9.75331C47.6933 10.3133 47.6933 11.2466 47.11 11.8066Z" fill="#F49928"/>
<path d="M4.66699 26.74V38.4067C4.66699 43.75 8.98366 48.0667 14.327 48.0667H41.6503C46.9937 48.0667 51.3337 43.7267 51.3337 38.3834V26.74C51.3337 25.1767 50.0737 23.9167 48.5103 23.9167H7.49033C5.92699 23.9167 4.66699 25.1767 4.66699 26.74ZM18.667 40.25H14.0003C13.0437 40.25 12.2503 39.4567 12.2503 38.5C12.2503 37.5434 13.0437 36.75 14.0003 36.75H18.667C19.6237 36.75 20.417 37.5434 20.417 38.5C20.417 39.4567 19.6237 40.25 18.667 40.25ZM33.8337 40.25H24.5003C23.5437 40.25 22.7503 39.4567 22.7503 38.5C22.7503 37.5434 23.5437 36.75 24.5003 36.75H33.8337C34.7903 36.75 35.5837 37.5434 35.5837 38.5C35.5837 39.4567 34.7903 40.25 33.8337 40.25Z" fill="#F49928"/>
<path d="M31.5003 10.7567V17.5933C31.5003 19.1567 30.2403 20.4167 28.677 20.4167H7.49033C5.90366 20.4167 4.66699 19.11 4.66699 17.5467C4.69033 14.91 5.74033 12.5067 7.49033 10.7567C9.24033 9.00668 11.667 7.93335 14.327 7.93335H28.677C30.2403 7.93335 31.5003 9.19335 31.5003 10.7567Z" fill="#F49928"/>
</svg>
