<svg width="52" height="52" viewBox="0 0 52 52" fill="none" xmlns="http://www.w3.org/2000/svg">
<g clip-path="url(#clip0_123_655)">
<path d="M36.0069 0C36.1279 0 36.2489 0 36.3768 0C36.6736 3.66715 35.2739 6.40724 33.5728 8.39152C31.9036 10.3621 29.6179 12.2733 25.9211 11.9833C25.6745 8.36868 27.0765 5.83182 28.7753 3.85211C30.3509 2.00711 33.2394 0.365345 36.0069 0Z" fill="black"/>
<path d="M47.1979 38.1695C47.1979 38.206 47.1979 38.238 47.1979 38.2722C46.159 41.4187 44.677 44.1154 42.8686 46.6181C41.2177 48.89 39.1946 51.9475 35.5822 51.9475C32.4608 51.9475 30.3875 49.9404 27.1884 49.8856C23.8044 49.8308 21.9434 51.5639 18.8494 52C18.4955 52 18.1416 52 17.7945 52C15.5225 51.6712 13.6889 49.8719 12.3531 48.2507C8.41426 43.4601 5.37048 37.2721 4.8042 29.3532C4.8042 28.5769 4.8042 27.8028 4.8042 27.0264C5.04396 21.359 7.79774 16.7511 11.458 14.5179C13.3898 13.3306 16.0454 12.319 19.0024 12.7711C20.2697 12.9675 21.5644 13.4014 22.6992 13.8306C23.7747 14.2439 25.1197 14.9769 26.3938 14.9381C27.2569 14.913 28.1155 14.4631 28.9855 14.1457C31.5337 13.2255 34.0318 12.1706 37.3245 12.6661C41.2816 13.2644 44.0902 15.0226 45.8256 17.7353C42.4781 19.8657 39.8316 23.0761 40.2838 28.5586C40.6856 33.5387 43.581 36.4523 47.1979 38.1695Z" fill="black"/>
</g>
<defs>
<clipPath id="clip0_123_655">
<rect width="52" height="52" fill="white"/>
</clipPath>
</defs>
</svg>
