<svg width="100" height="52" viewBox="0 0 100 52" fill="none" xmlns="http://www.w3.org/2000/svg">
<path d="M98.6073 21.0422V15.8635H79.5616C75.5855 15.8635 73.7939 18.3179 73.4994 20.6986V20.7722V15.8635H67.9034V21.0422H73.4748H98.6073ZM73.4748 22.9075L67.8789 22.5884V28.5525C67.8789 30.4178 66.9462 30.9823 63.7065 30.9823H59.2396C56.5644 30.9823 55.4354 30.2214 55.4354 28.5525V22.0239L49.7658 21.6067V29.0188H49.6431C49.324 26.859 48.5141 24.3556 43.1145 23.9874L25.3696 22.8093C25.3696 25.5336 27.3086 27.1535 30.352 27.4726L42.7219 28.7243C43.7036 28.7979 44.4154 29.0924 44.4154 29.9024C44.4154 30.7859 43.679 30.8841 42.55 30.8841H25.1487V22.8093L19.4792 22.4412V36.1364H42.5746C47.7287 36.1364 49.3731 33.4612 49.6186 31.2277H49.7413C50.3794 34.762 53.4719 36.1364 58.6996 36.1364H64.4674C70.5787 36.1364 73.4748 34.2711 73.4748 29.9024V22.9075ZM91.4652 23.9629L73.7202 22.9075C73.7202 25.6318 75.5119 27.448 78.5553 27.6935L91.1952 28.6752C92.1769 28.7488 92.766 28.9943 92.766 29.8042C92.766 30.5651 92.0787 30.8596 90.6552 30.8596H73.4257V36.1364H91.0234C96.5702 36.1364 99 34.1975 99 29.7797C99 25.8036 96.8156 24.3065 91.4652 23.9629ZM49.7658 15.8635H55.4354V21.0422H49.7658V15.8635ZM16.3622 22.1957L10.2018 21.5821L0.826172 36.1364H7.72288L16.3622 22.1957ZM48.735 15.8635H31.4319C27.4067 15.8635 25.6396 18.367 25.2224 20.7722V15.8635H15.6259C14.276 15.8635 13.6379 16.2808 12.9997 17.2134L10.349 21.0422H48.735V15.8635Z" fill="black"/>
</svg>
