<svg width="113" height="52" viewBox="0 0 113 52" fill="none" xmlns="http://www.w3.org/2000/svg">
<path d="M88.4725 18.9714L88.6658 29.9822H88.5707L85.3739 18.9714H80.1339V32.8415H83.6006L83.4074 21.4472H83.5025L86.9232 32.8415H91.9393V18.9714H88.4725ZM22.4169 18.9714L19.7969 32.9857H23.5827L25.5155 20.2354H25.5953L27.482 32.9857H31.2372L28.6478 18.9714H22.4169ZM43.604 18.9714L41.8768 29.6601H41.7817L40.0391 18.9714H34.3174L34.0443 32.9857H37.5602L37.6553 20.3796H37.686L40.036 32.9857H43.5979L45.9479 20.3796H46.043L46.1381 32.9857H49.654L49.3196 18.9714H43.604ZM13.8819 29.0066C14.0261 29.3257 13.977 29.8043 13.931 30.0282C13.8359 30.5068 13.4984 30.9701 12.5719 30.9701C11.676 30.9701 11.1668 30.4577 11.1668 29.7092V28.3501H7.41162V29.4208C7.41162 32.5685 9.88744 33.495 12.5259 33.495C15.0508 33.495 17.1584 32.6176 17.4959 30.3166C17.6892 29.1017 17.545 28.304 17.4959 28.0157C16.8394 25.0582 11.4889 24.2298 11.1208 22.5823C11.0717 22.294 11.0717 22.024 11.1208 21.8307C11.2159 21.3674 11.5349 20.8889 12.3817 20.8889C13.2284 20.8889 13.6917 21.4012 13.6917 22.1498V22.9965H17.2075V22.0209C17.2075 18.9683 14.4433 18.5051 12.4768 18.5051C9.98255 18.5051 7.92397 19.3365 7.55581 21.5883C7.46071 22.1958 7.41162 22.7695 7.6049 23.4751C8.16326 26.3682 13.1824 27.2149 13.885 29.0035L13.8819 29.0066ZM59.502 29.0066C59.6462 29.3257 59.5971 29.7582 59.5511 30.0282C59.456 30.5068 59.1185 30.9701 58.192 30.9701C57.2962 30.9701 56.7869 30.4577 56.7869 29.7092V28.3501H53.0318V29.4208C53.0318 32.5194 55.4616 33.4643 58.0969 33.4643C60.6218 33.4643 62.6835 32.6176 63.0179 30.2675C63.2112 29.0526 63.067 28.301 63.0179 27.9666C62.4595 25.0582 57.1551 24.1807 56.7869 22.5823C56.7378 22.294 56.7378 22.024 56.7869 21.8307C56.8667 21.3674 57.2011 20.8889 58.0478 20.8889C58.8455 20.8889 59.3578 21.4012 59.3578 22.1498V22.9965H62.8246V22.0209C62.8246 18.9683 60.1095 18.5051 58.1429 18.5051C55.6487 18.5051 53.6361 19.2874 53.268 21.5883C53.1729 22.1958 53.1729 22.7695 53.2987 23.4751C53.8754 26.3682 58.7964 27.1658 59.499 29.0035L59.502 29.0066ZM71.3105 30.878C72.3014 30.878 72.5714 30.2215 72.6696 29.8564C72.7187 29.7122 72.7187 29.4729 72.7187 29.3287V18.9745H76.2806V29.0557C76.2806 29.3287 76.2806 29.8534 76.2315 29.9822C76.0075 32.6176 73.9305 33.4643 71.3565 33.4643C68.7825 33.4643 66.7239 32.6176 66.4816 29.9822C66.4816 29.8534 66.4325 29.3257 66.4325 29.0557V18.9745H69.9944V29.3287C69.9944 29.522 69.9944 29.7122 70.0435 29.8564C70.0435 30.2246 70.3318 30.878 71.3044 30.878H71.3105ZM100.569 30.7338C101.609 30.7338 101.928 30.0773 102.024 29.7122C102.073 29.568 102.073 29.3287 102.073 29.1999V27.172H100.618V25.1103H105.589V28.8655C105.589 29.1539 105.589 29.3287 105.539 29.8073C105.3 32.3813 103.094 33.2741 100.618 33.2741C98.1242 33.2741 95.9368 32.3783 95.6975 29.8073C95.6484 29.3287 95.6484 29.1508 95.6484 28.8655V22.9536C95.6484 22.7296 95.6975 22.251 95.6975 22.0271C96.0166 19.3917 98.1273 18.545 100.618 18.545C103.094 18.545 105.251 19.3917 105.539 22.0271C105.589 22.4412 105.589 22.9536 105.589 22.9536V23.4322H102.073V22.6345C102.073 22.6345 102.073 22.3001 102.024 22.1068C101.974 21.7878 101.689 21.0852 100.618 21.0852C99.5784 21.0852 99.3085 21.7417 99.2133 22.1068C99.1643 22.3001 99.1643 22.5394 99.1643 22.7787V29.2029C99.1643 29.3778 99.1643 29.5711 99.2133 29.7153C99.2133 30.0834 99.5815 30.7369 100.572 30.7369L100.569 30.7338Z" fill="black"/>
</svg>
