<svg width="100" height="52" viewBox="0 0 100 52" fill="none" xmlns="http://www.w3.org/2000/svg">
<path fill-rule="evenodd" clip-rule="evenodd" d="M97.0446 32.1794C97.0446 32.0424 96.984 31.8982 96.8627 31.8295C96.7405 31.7571 96.604 31.75 96.467 31.75H95.7595V33.3733H95.9576V32.6246H96.3228L96.7863 33.3733H97.0222L96.5317 32.6246C96.821 32.6164 97.0446 32.4988 97.0446 32.1794ZM96.2617 32.4682H95.9571V31.8942H96.4206C96.6223 31.8942 96.8434 31.9247 96.8434 32.1758C96.8439 32.5064 96.4894 32.4682 96.2617 32.4682ZM87.7856 24.3314L90.7551 21.1607C90.9273 20.9279 91.0129 20.7649 91.0129 20.6253C91.0129 20.3926 90.8127 20.2994 90.1831 20.2994H89.4339V18.2976H97.5437V20.2994H96.4782C95.2476 20.2994 95.0189 20.4853 93.3019 22.65L88.6042 27.7231V30.8189C88.6042 31.611 89.004 31.8896 90.149 31.8896H91.9226V33.821H80.5636V31.8896H82.3371C83.4811 31.8896 83.882 31.611 83.882 30.8189V27.7231L78.3489 21.6023C77.4347 20.5321 77.561 20.2994 75.0153 20.2994V18.2976H85.2878V20.2994H84.5564C83.8122 20.2994 83.4969 20.4389 83.4969 20.718C83.4969 20.9513 83.7256 21.1372 83.8688 21.3231L86.6681 24.3741C87.0007 24.72 87.4067 24.7648 87.7856 24.3314ZM18.8622 18.2971H21.3401V23.8826H19.0516C18.8489 22.7661 18.1501 22.3317 17.5129 21.7459C16.3633 20.6895 13.8736 19.8099 11.7797 19.8099C9.07707 19.8099 6.79621 20.6483 6.79621 21.8809C6.79621 25.3027 22.2524 22.5797 22.2524 29.0494C22.2524 32.4239 18.9416 34.309 12.996 34.309C10.9377 34.309 7.82306 33.6703 5.98533 32.6943C5.40926 32.3617 5.16477 33.0091 5.05679 33.8205H2.51616V28.0486H4.81434C5.32114 29.515 6.01945 29.817 6.66174 30.3992C7.7762 31.4235 10.4289 32.1687 12.8615 32.1448C16.5293 32.1086 17.7905 31.3069 17.7905 30.143C17.7905 28.9797 16.5431 28.7 12.5238 28.072L9.1112 27.5132C5.26002 26.9311 2.45605 26.0703 2.45605 22.9984C2.45605 19.8099 6.00316 17.8081 11.6116 17.8081C13.975 17.8081 15.9523 18.1239 17.8501 19.1966C18.3757 19.5384 18.8688 19.5791 18.8622 18.2971ZM67.2217 27.6487L67.2706 21.4408C67.2706 20.6264 66.8468 20.3472 65.6361 20.3472H64.2135V18.4158H73.2646V20.3472H72.085C70.8732 20.3472 70.4495 20.6269 70.4495 21.4408V33.9387L66.9069 33.9107L55.4344 23.0468V30.9366C55.4344 31.7281 55.8582 32.0302 57.0689 32.0302H58.6438V33.9387H49.2438V32.0302H50.8014C52.0121 32.0302 52.4359 31.7276 52.4359 30.9366V21.4408C52.4359 20.6264 52.0121 20.3472 50.8014 20.3472H49.2438V18.4158H57.3709L67.2217 27.6487ZM36.9038 17.691C29.6904 17.691 25.175 20.88 25.175 25.9995C25.175 31.0272 29.6277 34.1918 36.6837 34.1918C44.1783 34.1918 48.5378 31.0736 48.5378 25.7438C48.5383 20.9498 43.834 17.691 36.9038 17.691ZM36.7398 32.1677C32.747 32.1677 30.4519 29.8634 30.4519 25.8833C30.4519 21.997 32.8468 19.6927 36.9394 19.6927C40.8655 19.6927 43.1606 22.0439 43.1606 26.0468C43.1606 29.9566 40.8319 32.1677 36.7398 32.1677Z" fill="black"/>
</svg>
