<svg width="52" height="52" viewBox="0 0 52 52" fill="none" xmlns="http://www.w3.org/2000/svg">
<g clip-path="url(#clip0_404_524)">
<path d="M3 3H49V49H3V3Z" fill="#F57921"/>
<mask id="mask0_404_524" style="mask-type:luminance" maskUnits="userSpaceOnUse" x="3" y="3" width="46" height="46">
<path d="M3 3H49V49H3V3Z" fill="white"/>
</mask>
<g mask="url(#mask0_404_524)">
<path d="M34.1547 37.6995V20.9314C34.1547 17.1216 31.067 14.0326 27.2576 14.0326H7.86917C7.71961 14.0326 7.59863 14.153 7.59863 14.3009V37.6994C7.59863 37.8474 7.71961 37.9673 7.86917 37.9673H13.048C13.0834 37.9673 13.1186 37.9604 13.1514 37.9469C13.1842 37.9334 13.214 37.9136 13.2391 37.8886C13.2642 37.8636 13.2842 37.8338 13.2978 37.8011C13.3114 37.7683 13.3185 37.7332 13.3185 37.6978V19.3328C13.3185 19.2973 13.3256 19.2621 13.3392 19.2294C13.3528 19.1966 13.3728 19.1668 13.3979 19.1417C13.423 19.1167 13.4528 19.0968 13.4856 19.0833C13.5184 19.0697 13.5536 19.0628 13.5891 19.0628H24.7257C26.8168 19.0628 28.5129 20.7579 28.5129 22.8495V37.6971C28.513 37.7686 28.5414 37.8371 28.5919 37.8877C28.6425 37.9382 28.711 37.9667 28.7825 37.9667H33.8853C34.0336 37.9667 34.1549 37.8464 34.1549 37.6987" fill="#FAF9F5"/>
</g>
<mask id="mask1_404_524" style="mask-type:luminance" maskUnits="userSpaceOnUse" x="3" y="3" width="46" height="46">
<path d="M3 3H49V49H3V3Z" fill="white"/>
</mask>
<g mask="url(#mask1_404_524)">
<path d="M23.6966 37.6978C23.6966 37.7332 23.6897 37.7683 23.6762 37.8011C23.6627 37.8338 23.6428 37.8636 23.6178 37.8886C23.5927 37.9136 23.563 37.9335 23.5303 37.947C23.4975 37.9605 23.4624 37.9674 23.427 37.9673H18.2494C18.0998 37.9673 17.9788 37.8469 17.9788 37.6978V23.6247C17.9788 23.5892 17.9858 23.5541 17.9994 23.5213C18.0131 23.4885 18.033 23.4587 18.0581 23.4337C18.0833 23.4086 18.1131 23.3887 18.1459 23.3752C18.1787 23.3616 18.2139 23.3547 18.2494 23.3547H23.427C23.4624 23.3547 23.4975 23.3617 23.5303 23.3752C23.563 23.3888 23.5928 23.4087 23.6178 23.4338C23.6429 23.4588 23.6627 23.4886 23.6762 23.5214C23.6897 23.5541 23.6966 23.5893 23.6966 23.6247V37.6984V37.6978Z" fill="#FAF9F5"/>
</g>
<mask id="mask2_404_524" style="mask-type:luminance" maskUnits="userSpaceOnUse" x="3" y="3" width="46" height="46">
<path d="M3 12.8174C3 7.39539 7.39539 3 12.8174 3H39.1826C44.6046 3 49 7.39539 49 12.8174V39.1826C49 44.6046 44.6046 49 39.1826 49H12.8174C7.39539 49 3 44.6046 3 39.1826V12.8174Z" fill="white"/>
</mask>
<g mask="url(#mask2_404_524)">
<path d="M44.4013 37.6978C44.4013 37.8469 44.2803 37.9673 44.1307 37.9673H38.9542C38.8045 37.9673 38.6824 37.8469 38.6824 37.6978V14.3034C38.6824 14.1538 38.8045 14.0328 38.9542 14.0328H44.1307C44.1662 14.0328 44.2014 14.0398 44.2343 14.0534C44.2671 14.0669 44.297 14.0869 44.3221 14.112C44.3472 14.1371 44.3672 14.167 44.3808 14.1998C44.3944 14.2326 44.4013 14.2678 44.4013 14.3034V37.6978Z" fill="#FAF9F5"/>
</g>
<mask id="mask3_404_524" style="mask-type:luminance" maskUnits="userSpaceOnUse" x="3" y="3" width="46" height="46">
<path d="M3 12.8174C3 7.39539 7.39539 3 12.8174 3H39.1826C44.6046 3 49 7.39539 49 12.8174V39.1826C49 44.6046 44.6046 49 39.1826 49H12.8174C7.39539 49 3 44.6046 3 39.1826V12.8174Z" fill="white"/>
</mask>
<g mask="url(#mask3_404_524)">
<path d="M44.4013 37.6978C44.4013 37.8469 44.2803 37.9673 44.1307 37.9673H38.9542C38.8045 37.9673 38.6824 37.8469 38.6824 37.6978V14.3034C38.6824 14.1538 38.8045 14.0328 38.9542 14.0328H44.1307C44.1662 14.0328 44.2014 14.0398 44.2343 14.0534C44.2671 14.0669 44.297 14.0869 44.3221 14.112C44.3472 14.1371 44.3672 14.167 44.3808 14.1998C44.3944 14.2326 44.4013 14.2678 44.4013 14.3034V37.6978Z" fill="#FAF9F5"/>
</g>
</g>
<defs>
<clipPath id="clip0_404_524">
<rect x="3" y="3" width="46" height="46" rx="12" fill="white"/>
</clipPath>
</defs>
</svg>
