<svg width="100" height="52" viewBox="0 0 100 52" fill="none" xmlns="http://www.w3.org/2000/svg">
<path fill-rule="evenodd" clip-rule="evenodd" d="M0.826172 37.28H23.3645V14.7201H0.826172V37.28ZM15.2716 16.4433C19.2555 17.75 22.134 21.53 22.1451 25.9958C22.1557 30.3892 19.3349 34.1603 15.2716 35.5532V16.4433ZM12.0913 15.9326C12.8111 15.9326 13.5774 16.0285 14.2164 16.1555C14.2164 21.2666 9.27804 25.4726 4.18083 25.4726L2.04955 25.4695C2.39877 20.23 6.7301 15.9326 12.0913 15.9326ZM4.1826 26.5368C9.27848 26.5368 14.2155 30.7383 14.2155 35.8449C13.5774 35.9755 12.7734 36.0719 12.0913 36.0719C6.72832 36.0648 2.25056 31.7536 2.04778 26.5372L4.1826 26.5368Z" fill="#121441"/>
<path fill-rule="evenodd" clip-rule="evenodd" d="M30.9083 27.9824V26.5607H35.5977V24.7473H30.9074V22.1078H35.8968V20.2997H28.9878V24.1859V27.9002C28.9878 29.8211 29.8056 31.1353 31.7243 31.4058C31.7629 31.4151 31.8006 31.4222 31.8357 31.4227H31.8707C32.0673 31.4449 32.2683 31.4595 32.4782 31.4595H36.0299V29.6532H32.4938C31.8841 29.6532 30.9083 29.3521 30.9083 27.9824Z" fill="#121441"/>
<path fill-rule="evenodd" clip-rule="evenodd" d="M37.3943 25.5735V31.4623H39.3148V25.5349V20.2972H37.3943V25.5735Z" fill="#121441"/>
<path fill-rule="evenodd" clip-rule="evenodd" d="M44.8218 23.1333C42.3941 23.1333 40.5779 24.8068 40.5779 27.4134V27.4783C40.5779 30.0205 42.3302 31.6616 44.8702 31.6616C46.0918 31.6616 47.2331 31.3236 48.2781 30.2133L47.1208 29.0869C46.5098 29.6985 45.9152 30.0205 44.9345 30.0205C43.5039 30.0205 42.5552 29.1838 42.4908 27.8967H48.7928C48.8252 27.5747 48.8252 27.2211 48.8252 27.2211C48.8247 24.952 47.2331 23.1333 44.8218 23.1333ZM42.5388 26.5447C42.6191 25.5632 43.6161 24.7748 44.8218 24.7748C45.9471 24.7748 46.8634 25.5796 46.8634 26.5447H42.5388Z" fill="#121441"/>
<path fill-rule="evenodd" clip-rule="evenodd" d="M54.2209 24.8553C55.0889 24.8553 55.7319 25.1773 56.2785 25.7405L57.4687 24.5014C56.5359 23.5034 55.4266 23.1014 54.2214 23.1014C51.7777 23.1014 49.8164 24.9197 49.8164 27.3976C49.8164 29.8754 51.7777 31.6941 54.2214 31.6941C55.427 31.6941 56.5364 31.2917 57.4687 30.2942L56.2785 29.0551C55.7323 29.6187 55.0889 29.9398 54.2209 29.9398C52.8063 29.9398 51.7289 28.8619 51.7289 27.3976C51.7289 25.9337 52.8063 24.8553 54.2209 24.8553Z" fill="#121441"/>
<path fill-rule="evenodd" clip-rule="evenodd" d="M60.5843 27.9851H60.5821V25.1347H62.3291V23.3883H60.5848V20.2976H58.6638V24.3024V28.0993L58.6696 28.0988C58.7242 29.9127 59.5477 31.1483 61.4008 31.409C61.4394 31.4183 61.4771 31.4254 61.5117 31.4263H61.5472C61.7434 31.4481 61.9448 31.4627 62.1547 31.4627H62.3575L62.365 29.6569H62.1707C61.5601 29.6564 60.5843 29.3549 60.5843 27.9851Z" fill="#121441"/>
<path fill-rule="evenodd" clip-rule="evenodd" d="M65.8493 24.5896V23.3891H63.9443V27.3455V31.4626H65.8493V27.2171C65.8493 25.8878 66.6973 25.0547 68.025 25.0547C68.3294 25.0547 68.6018 25.0866 68.8259 25.135V23.2768C68.7456 23.2608 68.458 23.2292 68.2499 23.2292C67.0971 23.2288 66.2331 23.7573 65.8493 24.5896Z" fill="#121441"/>
<path fill-rule="evenodd" clip-rule="evenodd" d="M73.5218 23.1489C71.0723 23.1489 69.1199 25.0067 69.1199 27.426C69.1199 29.8438 71.0723 31.7034 73.5218 31.7034C75.9539 31.7034 77.9227 29.8438 77.9227 27.426C77.9227 25.0063 75.9543 23.1489 73.5218 23.1489ZM73.5218 29.9571C72.0974 29.9571 71.0253 28.8516 71.0253 27.426C71.0253 25.9998 72.0974 24.8948 73.5218 24.8948C74.9306 24.8948 76.0182 25.9998 76.0182 27.426C76.0182 28.8512 74.9306 29.9571 73.5218 29.9571Z" fill="#121441"/>
<path fill-rule="evenodd" clip-rule="evenodd" d="M79.1042 25.3808V31.4623H81.0261V25.458V20.2972H79.1042V25.3808Z" fill="#121441"/>
<path fill-rule="evenodd" clip-rule="evenodd" d="M87.9521 28.0819C87.9521 29.3632 87.2004 29.9086 86.1909 29.9086C85.1832 29.9086 84.4306 29.3628 84.4306 28.0988V23.3892H82.4941V25.7275V28.2591C82.4941 30.5659 84.1746 31.6714 86.1754 31.6714C88.1922 31.6714 89.8877 30.5504 89.8877 28.2111V25.728V23.3896H87.9521V28.0819Z" fill="#121441"/>
<path fill-rule="evenodd" clip-rule="evenodd" d="M97.1548 28.8809L95.9439 27.1852L97.4437 25.1404L98.7279 23.3892H96.6317L94.8869 25.8075L93.1261 23.3892H91.0459L92.2387 25.0222L93.8308 27.2016L92.1623 29.5267L90.7734 31.4622H92.8386L94.8869 28.6109L96.9352 31.4622H98.9999L97.1548 28.8809Z" fill="#121441"/>
</svg>
