<svg width="100" height="52" viewBox="0 0 100 52" fill="none" xmlns="http://www.w3.org/2000/svg">
<g clip-path="url(#clip0_404_524)">
<path d="M3.7356 26.3598V25.6669C4.61143 18.1418 12.8546 17.8727 18.1954 20.4784C18.2485 20.5041 18.2957 20.5407 18.3338 20.5857C18.372 20.6307 18.4003 20.6832 18.417 20.7398C18.4338 20.7964 18.4385 20.8559 18.4309 20.9144C18.4232 20.9729 18.4035 21.0292 18.3729 21.0797L17.4913 22.5286C17.3578 22.7462 17.1765 22.7939 16.9475 22.6718C14.6463 21.4004 10.9655 20.6788 8.62996 22.3339C5.52161 24.533 6.37454 29.1087 9.9294 30.2941C11.9253 30.9623 13.9632 30.8458 16.0431 29.9448C16.2453 29.857 16.3445 29.7024 16.3407 29.4809L16.3007 27.7113C16.293 27.4021 16.1346 27.2475 15.8255 27.2475H12.5855C12.3929 27.2476 12.2059 27.1811 12.0559 27.0592C11.9058 26.9372 11.8018 26.7672 11.7612 26.5774C11.538 25.5008 12.2249 25.2488 13.1522 25.2431C14.7856 25.2431 16.4113 25.2431 18.0294 25.2431C18.2617 25.2431 18.4845 25.3354 18.6487 25.4997C18.813 25.664 18.9053 25.8869 18.9053 26.1193V30.6549C18.9056 30.8574 18.8482 31.0562 18.7399 31.2284C18.6316 31.4006 18.4766 31.5392 18.2927 31.6285C13.3411 34.0337 4.29086 33.7245 3.7356 26.3598Z" fill="black"/>
<path d="M31.0466 30.8268H24.349C24.2188 30.8271 24.092 30.8681 23.9863 30.9441C23.8805 31.0201 23.8012 31.1273 23.7594 31.2506C23.3129 32.5945 22.3779 33.1023 20.9544 32.7739C20.8875 32.7582 20.8248 32.7277 20.7712 32.6847C20.7175 32.6417 20.6742 32.5874 20.6445 32.5258C20.6148 32.4642 20.5995 32.3968 20.5996 32.3287C20.5997 32.2606 20.6154 32.1936 20.6453 32.1325L26.467 20.0261C26.5912 19.7674 26.7852 19.5485 27.0271 19.3942C27.269 19.2398 27.5491 19.1562 27.836 19.1526C28.1228 19.149 28.405 19.2257 28.6506 19.3739C28.8963 19.5222 29.0956 19.7362 29.2262 19.9917L35.5116 32.2814C35.5305 32.3184 35.5413 32.3589 35.5433 32.4002C35.5453 32.4415 35.5385 32.4827 35.5233 32.5208C35.508 32.5589 35.4847 32.5931 35.4551 32.621C35.4254 32.6489 35.39 32.6698 35.3513 32.6823C33.489 33.3237 32.2239 32.8198 31.556 31.1704C31.5133 31.0687 31.4422 30.9818 31.3515 30.9207C31.2609 30.8595 31.1548 30.8269 31.0466 30.8268ZM25.013 28.4559C24.9881 28.5099 24.9771 28.5693 24.9811 28.6286C24.9851 28.6879 25.0039 28.7453 25.0358 28.7955C25.0677 28.8456 25.1117 28.887 25.1637 28.9157C25.2158 28.9444 25.2742 28.9596 25.3336 28.9599L29.936 28.9656C29.9959 28.9663 30.0551 28.9518 30.1079 28.9235C30.1607 28.8952 30.2054 28.8539 30.238 28.8036C30.2706 28.7533 30.2899 28.6956 30.2942 28.6358C30.2984 28.576 30.2875 28.5161 30.2623 28.4617L27.9668 23.4793C27.938 23.4187 27.8926 23.3675 27.8359 23.3316C27.7791 23.2957 27.7134 23.2767 27.6463 23.2767C27.5791 23.2767 27.5134 23.2957 27.4567 23.3316C27.3999 23.3675 27.3545 23.4187 27.3257 23.4793L25.013 28.4559Z" fill="black"/>
<path d="M43.7319 27.2475H40.8755C40.635 27.2475 40.5148 27.3659 40.5148 27.6026V32.1153C40.5151 32.2107 40.4883 32.3041 40.4376 32.3843C40.3868 32.4645 40.3143 32.5281 40.2286 32.5677C39.4692 32.9189 38.6926 32.959 37.8988 32.688C37.7851 32.6495 37.6863 32.5763 37.6165 32.4787C37.5466 32.3811 37.5092 32.264 37.5095 32.1439V20.0833C37.5094 19.8709 37.5917 19.6669 37.7391 19.5141C37.8865 19.3613 38.0874 19.2718 38.2995 19.2643C40.8869 19.1784 47.1723 18.6516 49.319 20.0833C52.4617 22.1793 51.0306 25.9532 47.8134 26.9497C47.7504 26.9684 47.6928 27.0019 47.6454 27.0475C47.598 27.093 47.5621 27.1492 47.5408 27.2114C47.5195 27.2736 47.5134 27.34 47.523 27.4051C47.5326 27.4701 47.5576 27.532 47.5959 27.5854L51.0134 32.373C51.0439 32.4159 51.0621 32.4665 51.0657 32.519C51.0694 32.5716 51.0585 32.6242 51.0343 32.671C51.01 32.7178 50.9733 32.7569 50.9282 32.7842C50.8831 32.8114 50.8314 32.8257 50.7787 32.8254H48.3229C48.2393 32.8254 48.1569 32.8057 48.0823 32.7679C48.0077 32.7301 47.943 32.6752 47.8936 32.6078L44.2013 27.488C44.1483 27.4136 44.078 27.3529 43.9964 27.3111C43.9147 27.2692 43.8241 27.2474 43.7319 27.2475ZM40.4977 22.0533L40.5091 24.6418C40.5091 24.725 40.5256 24.8074 40.5576 24.8842C40.5896 24.961 40.6365 25.0307 40.6956 25.0893C40.7546 25.1478 40.8247 25.1941 40.9018 25.2254C40.9788 25.2568 41.0613 25.2725 41.1445 25.2717L44.8883 25.2488C45.7396 25.2441 46.555 25.0462 47.1558 24.6984C47.7567 24.3506 48.094 23.8813 48.0939 23.3934V23.233C48.0939 22.9903 48.0103 22.7503 47.8479 22.5267C47.6855 22.3031 47.4475 22.1004 47.1476 21.9301C46.8476 21.7599 46.4916 21.6254 46.1 21.5345C45.7084 21.4437 45.2888 21.3981 44.8654 21.4004L41.1216 21.4233C40.9556 21.4248 40.7969 21.4919 40.6801 21.6099C40.5632 21.7278 40.4977 21.8872 40.4977 22.0533Z" fill="black"/>
<path d="M56.9438 23.7255C56.8904 23.7179 56.8637 23.7427 56.8637 23.8L57.0011 32.2928C57.0026 32.3584 56.991 32.4237 56.9669 32.4848C56.9429 32.5459 56.9069 32.6015 56.861 32.6485C56.8151 32.6954 56.7604 32.7328 56.6999 32.7582C56.6394 32.7837 56.5744 32.7968 56.5088 32.7968H54.8086C54.5339 32.7968 54.3965 32.6593 54.3965 32.3844V19.7511C54.3965 19.6144 54.4508 19.4833 54.5474 19.3867C54.644 19.29 54.775 19.2357 54.9117 19.2357H57.3674C57.4662 19.2356 57.5634 19.2621 57.6489 19.3124C57.7344 19.3627 57.8052 19.4351 57.854 19.522L61.8725 26.9726C61.9014 27.0234 61.9431 27.0657 61.9935 27.0952C62.0439 27.1247 62.101 27.1402 62.1589 27.1402C62.2168 27.1402 62.2733 27.1247 62.3227 27.0952C62.372 27.0657 62.4123 27.0234 62.4393 26.9726C63.504 25.0217 64.5897 23.0459 65.6964 21.0454C66.6868 19.2586 67.7916 18.6516 69.7264 19.4018C69.9058 19.4743 69.9955 19.606 69.9955 19.7969V32.3902C69.9955 32.4456 69.9845 32.5004 69.9631 32.5515C69.9418 32.6026 69.9105 32.6489 69.8711 32.6878C69.8316 32.7267 69.7849 32.7574 69.7335 32.7781C69.6822 32.7987 69.6272 32.809 69.5719 32.8082L67.6714 32.7739C67.3852 32.7662 67.2439 32.6192 67.2478 32.3329L67.3451 23.9259C67.3468 23.8777 67.332 23.8303 67.3031 23.7916C67.2742 23.7529 67.2329 23.7252 67.1862 23.7132C67.1394 23.7012 67.0899 23.7055 67.046 23.7254C67.002 23.7454 66.9661 23.7798 66.9444 23.8229L62.445 32.2527C62.409 32.3184 62.356 32.3732 62.2915 32.4114C62.227 32.4496 62.1535 32.4697 62.0786 32.4697C62.0037 32.4697 61.9302 32.4496 61.8658 32.4114C61.8013 32.3732 61.7483 32.3184 61.7123 32.2527L57.8311 24.9797C57.7472 24.8193 57.6976 24.6513 57.6823 24.4757C57.6365 24.0405 57.3903 23.7904 56.9438 23.7255Z" fill="black"/>
<path d="M76.7676 19.2428L75.2449 19.2401C74.8687 19.2395 74.5632 19.5441 74.5625 19.9204L74.5413 32.1185C74.5406 32.4949 74.845 32.8005 75.2213 32.8012L76.744 32.8039C77.1202 32.8045 77.4257 32.4999 77.4263 32.1236L77.4476 19.9255C77.4483 19.5491 77.1438 19.2435 76.7676 19.2428Z" fill="black"/>
<path d="M84.7357 23.9603V32.3959C84.7357 32.4536 84.7242 32.5106 84.7018 32.5636C84.6793 32.6165 84.6465 32.6643 84.6052 32.704C84.5639 32.7436 84.5152 32.7744 84.4618 32.7943C84.4084 32.8142 84.3517 32.8228 84.2949 32.8197L82.4288 32.7223C82.3179 32.7179 82.2131 32.6707 82.1362 32.5906C82.0594 32.5106 82.0165 32.4038 82.0166 32.2928V20.6273C82.0161 20.2788 82.1201 19.9383 82.3151 19.6497C82.5101 19.361 82.7873 19.1374 83.111 19.0075C83.4347 18.8775 83.7902 18.8473 84.1317 18.9206C84.4732 18.994 84.7852 19.1675 85.0276 19.419L93.1219 27.8488C93.16 27.887 93.2086 27.9131 93.2616 27.9239C93.3145 27.9346 93.3692 27.9294 93.4186 27.909C93.468 27.8886 93.5099 27.854 93.5386 27.8095C93.5674 27.7651 93.5818 27.7129 93.5799 27.6599L93.4368 19.7511C93.4291 19.4762 93.5627 19.3312 93.8375 19.3159L95.6807 19.2357C95.75 19.2318 95.8194 19.2421 95.8845 19.266C95.9497 19.2898 96.0093 19.3268 96.0596 19.3745C96.11 19.4222 96.1501 19.4797 96.1775 19.5435C96.2049 19.6073 96.2189 19.676 96.2188 19.7454L96.2646 31.4796C96.2659 31.7869 96.175 32.0874 96.0036 32.3423C95.8322 32.5973 95.5883 32.7949 95.3035 32.9097C95.0186 33.0244 94.7058 33.051 94.4057 32.9859C94.1056 32.9209 93.8318 32.7672 93.62 32.5448L85.2051 23.7713C85.167 23.7331 85.1185 23.7069 85.0656 23.6961C85.0128 23.6852 84.9579 23.6902 84.9078 23.7103C84.8578 23.7305 84.8147 23.7649 84.7841 23.8094C84.7535 23.8539 84.7367 23.9064 84.7357 23.9603Z" fill="black"/>
</g>
<defs>
<clipPath id="clip0_404_524">
<rect width="92.5288" height="14.1125" fill="white" transform="translate(3.7356 18.9437)"/>
</clipPath>
</defs>
</svg>
