<svg width="100" height="52" viewBox="0 0 100 52" fill="none" xmlns="http://www.w3.org/2000/svg">
<g clip-path="url(#clip0_404_524)">
<path d="M12.6604 16.9163V24.2862H5.41338V16.9163H2.15552V35.0989H5.41338V27.5255H12.6604V35.0989H15.9183V16.9163H12.6604ZM88.0528 20.1556H91.6799C93.1681 20.1556 94.3733 21.3542 94.3733 22.8326C94.3733 24.3119 93.1681 25.5105 91.6799 25.5105H88.0528V20.1556ZM84.7967 16.9163V35.0989H88.0537V27.0075L94.8348 35.0989H99.068L93.5098 28.4709C96.3 27.5824 98.0252 24.8104 97.5788 21.9326C97.1324 19.0548 94.6467 16.9269 91.718 16.9163H84.7914H84.7967ZM53.9859 16.8621V28.2079L46.0777 16.8621H43.4757V35.0429H46.7344V23.6456L54.6817 35.0438H57.2393V16.8621H53.9859ZM23.5726 25.9956C23.5744 22.6327 26.3175 19.9078 29.6996 19.9086C33.0826 19.9104 35.8231 22.6371 35.8222 26C35.8213 29.3629 33.08 32.0887 29.697 32.0887C28.072 32.0887 26.5145 31.4472 25.3662 30.3056C24.2178 29.1639 23.5726 27.6144 23.5726 25.9991V25.9956ZM20.3147 25.9991C20.3147 29.7734 22.5999 33.1744 26.1063 34.6191C29.6127 36.0629 33.6479 35.2659 36.3316 32.5978C39.0153 29.9297 39.8185 25.9174 38.3657 22.431C36.9138 18.9447 33.4917 16.6719 29.697 16.6719C24.5177 16.6728 20.3192 20.846 20.3165 25.9965L20.3147 25.9991ZM64.8954 25.9956C64.8972 22.6327 67.6404 19.9069 71.0234 19.9086C74.4064 19.9104 77.1459 22.638 77.1442 26.0009C77.1433 29.3638 74.4001 32.0896 71.0171 32.0878C69.3931 32.0878 67.8356 31.4464 66.6863 30.3047C65.5371 29.163 64.8928 27.6135 64.8928 25.9982L64.8954 25.9956ZM61.6349 25.9991C61.634 29.7734 63.9201 33.1744 67.4256 34.6191C70.9319 36.0629 74.9681 35.2659 77.6509 32.5978C80.3337 29.9297 81.1386 25.9174 79.685 22.431C78.2331 18.9447 74.8119 16.6719 71.0162 16.6719C65.837 16.6728 61.6376 20.846 61.6349 25.9965V25.9991Z" fill="black"/>
</g>
<defs>
<clipPath id="clip0_404_524">
<rect width="98.1738" height="22.2118" fill="white" transform="translate(0.913086 14.8941)"/>
</clipPath>
</defs>
</svg>
