<svg width="100" height="52" viewBox="0 0 100 52" fill="none" xmlns="http://www.w3.org/2000/svg">
<g clip-path="url(#clip0_404_524)">
<path d="M27.0454 31.8035C27.032 31.8301 27.022 31.8534 27.0119 31.8701C26.711 32.3727 26.3665 32.8422 25.9551 33.2616C25.5304 33.6876 25.0555 34.0372 24.4903 34.2602C24.0956 34.4133 23.6909 34.49 23.2662 34.4733C22.9886 34.4633 22.7278 34.3934 22.4736 34.2902C22.0489 34.1204 21.6442 33.9073 21.2462 33.6843C20.2363 33.1085 19.2696 32.4626 18.3165 31.7969C18.2698 31.7636 18.2195 31.7302 18.1727 31.6937C18.1226 31.6571 18.1024 31.6104 18.1159 31.5638C18.1292 31.5205 18.1761 31.4939 18.2396 31.4939C18.3031 31.4939 18.3667 31.4973 18.4336 31.5006C18.7446 31.5106 19.0523 31.5205 19.3633 31.5338C19.8248 31.5505 20.2864 31.5672 20.7512 31.5805C21.2127 31.5971 21.6743 31.6138 22.1392 31.6271C22.6007 31.6437 23.0622 31.6603 23.5271 31.6736C23.992 31.6903 24.4568 31.707 24.9217 31.7203C25.3832 31.737 25.8447 31.7536 26.3097 31.7669C26.5437 31.7735 26.7746 31.7835 27.0053 31.7935C27.0119 31.8001 27.0254 31.8001 27.0454 31.8035Z" fill="url(#paint0_radial_404_524)"/>
<path d="M3.53125 31.7969C3.645 31.7935 3.74867 31.7868 3.85233 31.7835C4.26699 31.7702 4.68165 31.7536 5.09307 31.7403C5.33727 31.7336 5.57799 31.727 5.8222 31.7169L6.92923 31.677C7.17999 31.6676 7.43081 31.6598 7.68167 31.6537L8.77862 31.6138C9.01285 31.6071 9.25021 31.6005 9.48433 31.5904C9.90571 31.5771 10.3271 31.5604 10.7518 31.5439C11.123 31.5306 11.4943 31.5205 11.8655 31.5072C11.9993 31.5039 12.1331 31.4973 12.2668 31.4939H12.3705C12.414 31.4973 12.4475 31.5173 12.4608 31.5604C12.4741 31.6005 12.4608 31.6337 12.4307 31.6637L12.3806 31.7036C11.3639 32.4194 10.3338 33.1117 9.25021 33.721C8.89573 33.9207 8.53453 34.1071 8.15988 34.2602C7.76864 34.4234 7.36059 34.4866 6.93584 34.4566C6.55122 34.4266 6.18676 34.3168 5.8389 34.147C5.41079 33.9373 5.03288 33.6544 4.69174 33.3248C4.24357 32.892 3.8725 32.3993 3.55803 31.8635C3.55276 31.84 3.54372 31.8175 3.53125 31.7969Z" fill="url(#paint1_radial_404_524)"/>
<path d="M15.7081 22.8321C15.7081 22.5225 15.7014 22.213 15.7081 21.9066C15.7248 21.3241 15.7415 20.7416 15.7683 20.159C15.785 19.7929 15.8151 19.4267 15.8485 19.0606C15.8987 18.4812 15.9655 17.902 16.0558 17.3261C16.1897 16.4673 16.3636 15.6151 16.6178 14.7796C16.7582 14.3268 16.9187 13.8807 17.1327 13.4546C17.1996 13.3215 17.2799 13.195 17.3501 13.0651C17.3803 13.0119 17.417 13.0019 17.4739 13.0119C17.8317 13.0818 18.1896 13.145 18.5441 13.215C18.8384 13.2748 19.126 13.3548 19.4036 13.4712C20.1494 13.7808 20.7448 14.2769 21.1962 14.9426C21.4805 15.3621 21.6878 15.8215 21.7982 16.3175C21.8517 16.5539 21.8717 16.7968 21.8751 17.0399C21.8918 17.8287 21.7547 18.5977 21.5273 19.35C21.3066 20.0824 21.0123 20.7881 20.6946 21.4839C20.2598 22.4293 19.7682 23.3481 19.2531 24.2535C18.3334 25.8614 17.3368 27.4227 16.2832 28.9473C16.2665 28.9706 16.2498 28.9973 16.2298 29.0172C16.203 29.0471 16.173 29.0638 16.1295 29.0505C16.1116 29.0453 16.0953 29.0355 16.0824 29.0221C16.0695 29.0086 16.0603 28.9921 16.0558 28.974C16.0459 28.9339 16.0425 28.8908 16.0391 28.8475C16.0057 28.468 15.9689 28.0885 15.9388 27.7123C15.902 27.2563 15.8652 26.8001 15.8318 26.3441C15.8089 26.0226 15.791 25.7008 15.7782 25.3787C15.7548 24.8894 15.7381 24.4 15.7181 23.9107C15.7147 23.7975 15.7147 23.6809 15.7113 23.5677C15.7081 23.3214 15.7014 23.0785 15.698 22.8321H15.7081Z" fill="url(#paint2_radial_404_524)"/>
<path d="M14.8755 22.962C14.8621 23.4579 14.8521 23.9573 14.8387 24.4533C14.8286 24.7895 14.8153 25.1291 14.7952 25.4653C14.7685 25.9249 14.7384 26.3843 14.7049 26.8434C14.6848 27.1466 14.6614 27.4496 14.6346 27.7522C14.608 28.0718 14.5745 28.3947 14.5444 28.7143C14.5377 28.7842 14.531 28.8574 14.5244 28.9273C14.5176 28.9972 14.4942 29.0306 14.4474 29.0439C14.3872 29.0572 14.3504 29.0272 14.3203 28.9806C14.1832 28.7839 14.0472 28.5864 13.9123 28.3881C13.0027 27.0432 12.1365 25.6717 11.3305 24.2602C10.9291 23.5578 10.5479 22.8488 10.1899 22.1264C9.82211 21.3774 9.48096 20.6184 9.20673 19.8294C9.03279 19.3301 8.88901 18.8208 8.7887 18.2982C8.7385 18.0385 8.71171 17.7789 8.69837 17.5125C8.68493 17.2496 8.69165 16.9866 8.71855 16.7235C8.77526 16.1976 8.92924 15.7049 9.19003 15.2423C9.5946 14.5264 10.1532 13.9705 10.889 13.5944C11.2435 13.4114 11.618 13.2881 12.006 13.2116C12.327 13.1483 12.6447 13.0885 12.9658 13.0252C13.0194 13.0151 13.0728 13.0119 13.123 13.0019C13.1699 12.9952 13.1999 13.0053 13.2233 13.0484C13.3036 13.1916 13.3905 13.3348 13.4642 13.4813C13.7517 14.0704 13.9491 14.6896 14.1163 15.3221C14.2802 15.938 14.4039 16.5605 14.5009 17.1896C14.5645 17.6158 14.6213 18.0419 14.6681 18.4712C14.715 18.9074 14.7518 19.3468 14.7818 19.7829C14.8119 20.2289 14.832 20.675 14.8453 21.1211C14.8588 21.4939 14.8621 21.8667 14.8688 22.2396C14.8721 22.4793 14.8688 22.7189 14.8688 22.9586C14.8721 22.962 14.8721 22.962 14.8755 22.962Z" fill="url(#paint3_radial_404_524)"/>
<path d="M25.2666 16.7868C25.377 16.8966 25.4807 16.9965 25.581 17.103C26.1027 17.6589 26.5609 18.2648 26.9254 18.934C27.1696 19.38 27.3669 19.8461 27.4839 20.3388C27.6913 21.2209 27.6277 22.0831 27.2399 22.9087C26.979 23.4646 26.6144 23.9472 26.1495 24.3533C25.8953 24.5764 25.6445 24.8061 25.3836 25.0192C24.8051 25.4885 24.1897 25.9113 23.5643 26.3175C22.3168 27.1297 21.0259 27.8687 19.7115 28.5678C18.969 28.9639 18.2166 29.34 17.4708 29.7263C17.4507 29.7362 17.4273 29.7495 17.4039 29.7562C17.3236 29.7795 17.2601 29.7296 17.2735 29.6463C17.2768 29.6131 17.2936 29.5797 17.3069 29.5498C17.4775 29.1936 17.6447 28.8374 17.8153 28.4846C18.3971 27.3013 19.0184 26.1377 19.6781 24.9958C20.3641 23.8071 21.0857 22.6393 21.842 21.4939C22.6078 20.3354 23.4038 19.1969 24.2432 18.0884C24.5542 17.6757 24.8786 17.2728 25.1964 16.8633C25.2164 16.8468 25.2365 16.8234 25.2666 16.7868Z" fill="url(#paint4_radial_404_524)"/>
<path d="M5.31711 16.7868C5.41405 16.9066 5.50763 17.0198 5.59807 17.1363C6.47088 18.2382 7.29706 19.3767 8.08962 20.5352C9.07282 21.9699 9.99931 23.438 10.8655 24.9459C11.3471 25.7781 11.8086 26.6237 12.25 27.4759C12.6079 28.1716 12.9557 28.8741 13.2834 29.5831C13.2935 29.6063 13.3035 29.6264 13.3136 29.6496C13.337 29.7263 13.2801 29.7928 13.1998 29.7728C13.1698 29.7662 13.1396 29.7495 13.1129 29.7362C12.2252 29.2969 11.3466 28.8396 10.4775 28.3647C9.50429 27.8354 8.54116 27.2829 7.60133 26.697C6.79532 26.191 6.00265 25.6649 5.25682 25.0758C4.97933 24.856 4.71507 24.623 4.45753 24.3867C4.26701 24.2103 4.07963 24.0338 3.91578 23.8308C3.47758 23.2882 3.17331 22.6823 3.04286 21.9965C2.92922 21.3874 2.96598 20.7848 3.13655 20.189C3.30376 19.613 3.56466 19.0771 3.88238 18.5711C4.27362 17.9486 4.73188 17.376 5.24684 16.8534C5.27038 16.8334 5.29033 16.8134 5.31711 16.7868Z" fill="url(#paint5_radial_404_524)"/>
<path d="M29.4101 24.0573C29.42 24.0871 29.4301 24.1105 29.4402 24.1371C29.5537 24.4982 29.6244 24.8714 29.6509 25.2489C29.7077 26.0578 29.594 26.8435 29.293 27.5958C29.0455 28.2116 28.6809 28.7576 28.2194 29.2403C27.8242 29.6538 27.3632 29.9991 26.855 30.2622C26.4771 30.4586 26.079 30.5885 25.6677 30.6884C25.3333 30.7682 24.9921 30.8248 24.6443 30.8215C24.427 30.8215 24.2129 30.8315 23.9955 30.8315C22.049 30.8348 20.106 30.8348 18.1595 30.8348H18.0726C18.0324 30.8315 17.9989 30.8115 17.9856 30.7716C17.9689 30.7317 17.9789 30.6917 18.009 30.6618C18.0291 30.6417 18.0559 30.6251 18.0793 30.6085C18.6812 30.2223 19.2833 29.8328 19.8919 29.4567C21.1662 28.6678 22.4603 27.9187 23.7647 27.1763C25.5071 26.1843 27.2629 25.2157 29.0288 24.2636C29.1325 24.207 29.2361 24.1538 29.3398 24.0972C29.3565 24.0838 29.3799 24.0738 29.4101 24.0573Z" fill="url(#paint6_radial_404_524)"/>
<path d="M1.17331 24.0737C1.29704 24.1404 1.41067 24.197 1.52106 24.2602C3.50102 25.3221 5.46752 26.404 7.41721 27.5225C8.69145 28.2515 9.95897 28.9939 11.2032 29.7728C11.6446 30.0492 12.0793 30.3354 12.5174 30.6184C12.5409 30.6351 12.5676 30.6517 12.5843 30.6716C12.6345 30.7316 12.6044 30.8148 12.5275 30.8315C12.5075 30.8347 12.484 30.8347 12.464 30.8347C12.1061 30.8347 11.7483 30.8347 11.387 30.8381C10.9022 30.8414 10.4206 30.8414 9.93566 30.8448C9.61122 30.8448 9.28677 30.848 8.96569 30.848C8.29349 30.848 7.62129 30.8514 6.95245 30.8514C6.62465 30.8514 6.3002 30.8547 5.97251 30.8414C5.37719 30.8214 4.79857 30.7082 4.24348 30.4919C3.03615 30.0192 2.13656 29.2036 1.51445 28.0751C1.23349 27.5625 1.05956 27.0165 0.972591 26.4406C0.912409 26.0345 0.895711 25.6284 0.93247 25.2222C0.962564 24.856 1.03323 24.4943 1.14316 24.1436C1.15325 24.1204 1.15997 24.1037 1.17331 24.0737Z" fill="url(#paint7_radial_404_524)"/>
<path d="M51.3797 31.0632C51.1927 31.0333 50.998 31.0109 50.8108 30.9811C50.0998 30.869 49.4335 30.6374 48.8421 30.204C48.1011 29.6586 47.6444 28.9116 47.3974 28.0375C47.2328 27.4622 47.1728 26.8795 47.1728 26.2817V20.3274V20.1556C47.3151 20.1108 49.134 20.1033 49.3511 20.1481V26.3042C49.3511 26.73 49.4111 27.1484 49.5608 27.5518C49.8677 28.3737 50.4815 28.8219 51.3349 28.949C51.7766 29.0162 52.2181 28.9937 52.6523 28.8817C53.3409 28.6949 53.8125 28.269 54.0746 27.6042C54.2393 27.1783 54.2916 26.7225 54.2916 26.2669V20.3648V20.1556C54.4339 20.1108 56.2529 20.0958 56.455 20.1406C56.455 20.193 56.4624 20.2527 56.4624 20.3124C56.4624 22.3296 56.47 24.3393 56.4624 26.3565C56.4624 27.0811 56.3428 27.7835 56.0732 28.4558C55.5717 29.7184 54.6434 30.5104 53.3409 30.854C53.0416 30.9362 52.7271 30.9586 52.4203 31.0109C52.3529 31.0183 52.293 31.0333 52.2256 31.0483C51.9562 31.0632 51.6717 31.0632 51.3797 31.0632ZM82.0707 20.1331H84.3015C84.2864 20.2004 84.2715 20.2676 84.249 20.3199C83.8598 21.4331 83.4706 22.5537 83.0812 23.667C82.2729 25.9904 81.4644 28.3139 80.6484 30.6374C80.5511 30.9287 80.6111 30.8914 80.2891 30.8989H78.9044C78.7396 30.8989 78.7396 30.8989 78.6798 30.7344C77.9012 28.5006 77.1303 26.2669 76.3517 24.033C76.3293 23.9807 76.3068 23.9284 76.2694 23.8238C76.2319 23.9135 76.2095 23.9658 76.1871 24.0181C75.8203 25.0789 75.446 26.1398 75.0792 27.2007C74.6749 28.3662 74.2707 29.5391 73.8666 30.7046C73.7991 30.9062 73.8291 30.9062 73.5895 30.9062H72.1672C71.9876 30.9062 71.9876 30.9062 71.9277 30.7344C70.715 27.2604 69.5024 23.7789 68.2823 20.3049C68.2673 20.2602 68.2523 20.2153 68.2374 20.1556H70.5429C71.3288 22.5986 72.1224 25.049 72.9084 27.507H72.9458C72.9607 27.4622 72.9832 27.4174 72.9981 27.365C73.7767 25.0266 74.5477 22.6807 75.3262 20.3423C75.3412 20.3049 75.3561 20.2602 75.3636 20.2228C75.3786 20.1555 75.431 20.1256 75.4984 20.1256C76.0374 20.1256 76.5763 20.1256 77.1153 20.1331C77.1303 20.1331 77.1527 20.1406 77.1826 20.1555C77.9911 22.5911 78.7995 25.0415 79.6079 27.4921C79.6903 27.4622 79.6903 27.3949 79.7127 27.3426C79.9224 26.7076 80.1245 26.0726 80.3265 25.4376C80.8805 23.7192 81.4345 22.0083 81.9884 20.2901C82.0259 20.2302 82.0483 20.1855 82.0707 20.1331ZM34.7993 30.8615V20.1406H36.9626C36.9626 20.2079 36.9701 20.2752 36.9701 20.3424V24.4589H41.9331C41.9406 24.3842 41.948 24.3095 41.948 24.2347V20.3648V20.1406H44.0964C44.1338 20.2602 44.1488 30.6299 44.1114 30.8615C43.9616 30.9064 42.1351 30.9064 41.948 30.854V26.5359C41.7758 26.491 37.1573 26.491 36.9775 26.5359V30.854C36.7905 30.9064 34.9639 30.9064 34.7993 30.8615ZM94.2499 28.9415V30.8465C94.1002 30.8839 86.3377 30.8914 86.1505 30.854C86.1056 30.7121 86.1056 20.3274 86.143 20.1481C86.2777 20.1108 93.8531 20.1034 94.0478 20.1406V22.0457C93.9654 22.0532 93.8832 22.0607 93.8008 22.0607H88.2764V24.2796H92.2064C92.2662 24.4364 92.2737 26.0427 92.2139 26.237H88.2989C88.254 26.4088 88.2464 28.7547 88.2989 28.934C90.2675 28.9415 92.2438 28.9415 94.2499 28.9415ZM69.0234 30.869C68.9411 30.8765 68.8886 30.8764 68.8363 30.8764C68.1999 30.8764 67.5637 30.869 66.9349 30.8839C66.7852 30.8839 66.7253 30.8316 66.6729 30.7046C66.411 30.0771 66.1339 29.457 65.872 28.8294C65.8121 28.6949 65.7447 28.6426 65.595 28.6426C64.0679 28.6501 62.5408 28.6501 61.0139 28.6426C60.8715 28.6426 60.8042 28.6799 60.7443 28.8144C60.4823 29.442 60.1979 30.0621 59.9283 30.6822C59.8984 30.7419 59.876 30.8018 59.8461 30.8615H57.6378C57.6678 30.7943 57.6827 30.7344 57.7052 30.6822C58.6484 28.553 59.5841 26.4238 60.5272 24.2871C61.12 22.9479 61.7113 21.6081 62.3013 20.2677C62.3538 20.1556 62.4061 20.1033 62.5408 20.1033C63.0649 20.1108 63.5963 20.1108 64.1203 20.1033C64.2701 20.1033 64.3299 20.1556 64.3898 20.2826C65.0935 21.8888 65.7971 23.4877 66.5007 25.0864C67.3167 26.9317 68.1251 28.7845 68.9411 30.6299C68.9561 30.7121 68.986 30.7793 69.0234 30.869ZM64.9437 26.6778C64.9288 26.6329 64.9213 26.5881 64.8988 26.5507C64.7865 26.2892 64.6743 26.0203 64.562 25.7588C64.1727 24.8473 63.7759 23.9435 63.3792 23.0319C63.3568 22.9796 63.3493 22.9049 63.2669 22.8675C62.7205 24.1377 62.1815 25.4002 61.6351 26.6703C61.8147 26.715 64.7716 26.7225 64.9437 26.6778ZM96.9223 20.1183H99.0032L99.0257 20.1406C99.0331 20.1481 99.0331 20.1481 99.0331 20.1556C99.0406 23.652 99.0406 27.1484 99.0406 30.6448C99.0406 30.7046 99.0406 30.7643 99.0331 30.8241C99.0331 30.8316 99.0257 30.8465 99.0107 30.8615H96.9073C96.9223 27.2829 96.9223 23.7118 96.9223 20.1183Z" fill="black"/>
</g>
<defs>
<radialGradient id="paint0_radial_404_524" cx="0" cy="0" r="1" gradientUnits="userSpaceOnUse" gradientTransform="translate(18.9559 15.8796) rotate(120.77) scale(21.638 22.1699)">
<stop stop-color="#F7BFA4"/>
<stop offset="0.234" stop-color="#E76C44"/>
<stop offset="0.421" stop-color="#E50012"/>
<stop offset="0.704" stop-color="#CA000C"/>
<stop offset="0.96" stop-color="#A00000"/>
</radialGradient>
<radialGradient id="paint1_radial_404_524" cx="0" cy="0" r="1" gradientUnits="userSpaceOnUse" gradientTransform="translate(18.9562 15.8796) rotate(120.77) scale(21.638 22.1699)">
<stop stop-color="#F7BFA4"/>
<stop offset="0.234" stop-color="#E76C44"/>
<stop offset="0.421" stop-color="#E50012"/>
<stop offset="0.704" stop-color="#CA000C"/>
<stop offset="0.96" stop-color="#A00000"/>
</radialGradient>
<radialGradient id="paint2_radial_404_524" cx="0" cy="0" r="1" gradientUnits="userSpaceOnUse" gradientTransform="translate(18.956 15.8796) rotate(120.77) scale(21.638 22.1699)">
<stop stop-color="#F7BFA4"/>
<stop offset="0.234" stop-color="#E76C44"/>
<stop offset="0.421" stop-color="#E50012"/>
<stop offset="0.704" stop-color="#CA000C"/>
<stop offset="0.96" stop-color="#A00000"/>
</radialGradient>
<radialGradient id="paint3_radial_404_524" cx="0" cy="0" r="1" gradientUnits="userSpaceOnUse" gradientTransform="translate(18.9562 15.8796) rotate(120.77) scale(21.638 22.1699)">
<stop stop-color="#F7BFA4"/>
<stop offset="0.234" stop-color="#E76C44"/>
<stop offset="0.421" stop-color="#E50012"/>
<stop offset="0.704" stop-color="#CA000C"/>
<stop offset="0.96" stop-color="#A00000"/>
</radialGradient>
<radialGradient id="paint4_radial_404_524" cx="0" cy="0" r="1" gradientUnits="userSpaceOnUse" gradientTransform="translate(18.9563 15.8795) rotate(120.77) scale(21.638 22.1699)">
<stop stop-color="#F7BFA4"/>
<stop offset="0.234" stop-color="#E76C44"/>
<stop offset="0.421" stop-color="#E50012"/>
<stop offset="0.704" stop-color="#CA000C"/>
<stop offset="0.96" stop-color="#A00000"/>
</radialGradient>
<radialGradient id="paint5_radial_404_524" cx="0" cy="0" r="1" gradientUnits="userSpaceOnUse" gradientTransform="translate(18.9561 15.8795) rotate(120.77) scale(21.638 22.1699)">
<stop stop-color="#F7BFA4"/>
<stop offset="0.234" stop-color="#E76C44"/>
<stop offset="0.421" stop-color="#E50012"/>
<stop offset="0.704" stop-color="#CA000C"/>
<stop offset="0.96" stop-color="#A00000"/>
</radialGradient>
<radialGradient id="paint6_radial_404_524" cx="0" cy="0" r="1" gradientUnits="userSpaceOnUse" gradientTransform="translate(18.9561 15.8796) rotate(120.77) scale(21.638 22.1699)">
<stop stop-color="#F7BFA4"/>
<stop offset="0.234" stop-color="#E76C44"/>
<stop offset="0.421" stop-color="#E50012"/>
<stop offset="0.704" stop-color="#CA000C"/>
<stop offset="0.96" stop-color="#A00000"/>
</radialGradient>
<radialGradient id="paint7_radial_404_524" cx="0" cy="0" r="1" gradientUnits="userSpaceOnUse" gradientTransform="translate(18.956 15.8795) rotate(120.77) scale(21.638 22.1699)">
<stop stop-color="#F7BFA4"/>
<stop offset="0.234" stop-color="#E76C44"/>
<stop offset="0.421" stop-color="#E50012"/>
<stop offset="0.704" stop-color="#CA000C"/>
<stop offset="0.96" stop-color="#A00000"/>
</radialGradient>
<clipPath id="clip0_404_524">
<rect width="98.1738" height="21.4755" fill="white" transform="translate(0.913086 13)"/>
</clipPath>
</defs>
</svg>
