<svg width="56" height="56" viewBox="0 0 56 56" fill="none" xmlns="http://www.w3.org/2000/svg">
<path d="M37.37 50.2766C37.3756 50.8328 36.9262 51.2867 36.37 51.2867H19.66C19.1103 51.2867 18.6637 50.843 18.66 50.2933L18.6201 44.3333C18.6201 41.7667 20.6968 39.6667 23.2868 39.6667H32.6434C35.2101 39.6667 37.2868 41.7433 37.3101 44.31L37.37 50.2766Z" fill="#F49928"/>
<path d="M43.1665 23.3333V28.3967C43.1665 29.6333 43.6565 30.8233 44.5432 31.71L46.4565 33.6233C47.3432 34.51 47.8332 35.7 47.8332 36.9367V39.6667C47.8332 45.3319 45.4722 49.416 40.2912 50.7919C39.9838 50.8736 39.6888 50.637 39.6877 50.319L39.6665 44.2867C39.6198 40.46 36.4698 37.3333 32.6665 37.3333H23.3098C19.4365 37.3333 16.3098 40.4833 16.3098 44.3333V50.3442C16.3098 50.6616 16.0167 50.8991 15.7093 50.8197C10.4648 49.4651 8.1665 45.3573 8.1665 39.6667V16.3333C8.1665 10.4431 10.6112 6.21174 16.2818 5.0327C16.5868 4.96929 16.8657 5.20956 16.8613 5.52103L16.7765 11.4333C16.7532 12.53 17.1498 13.58 17.8965 14.3733C18.6665 15.1667 19.6698 15.61 20.8598 15.6333C22.0695 15.6333 23.1456 15.1287 23.875 14.3087C24.1267 14.0258 24.6115 14.0146 24.8774 14.2841C24.8838 14.2905 24.8901 14.2969 24.8965 14.3033C25.6432 15.0967 26.6698 15.5633 27.8598 15.5867C29.06 15.5867 30.1546 15.0592 30.9015 14.2102C31.147 13.9312 31.6496 13.9089 31.8965 14.1867C32.6432 14.98 33.6698 15.4467 34.8598 15.47C37.0998 15.47 38.8965 13.72 38.9432 11.4567L39.0495 5.49999C39.055 5.19568 39.3291 4.96604 39.6273 5.02675C45.2956 6.18059 47.8332 10.4366 47.8332 16.3333V18.6667C47.8332 19.95 46.7832 21 45.4998 21C44.2165 21 43.1665 22.05 43.1665 23.3333Z" fill="#F49928"/>
<path d="M22.2148 4.66996C22.4955 4.66815 22.7227 4.89772 22.7179 5.17839L22.6099 11.5733C22.5866 12.53 21.8166 13.3 20.8599 13.3H20.8366C19.8566 13.2767 19.0866 12.4833 19.1099 11.5033V5.18677C19.1099 4.91189 19.3318 4.68856 19.6067 4.68678L22.2148 4.66996Z" fill="#F49928"/>
<path d="M29.218 4.66666C29.4975 4.66666 29.7227 4.89571 29.7179 5.17513L29.6099 11.55C29.5866 12.4833 28.8166 13.2533 27.8599 13.2533H27.8366C26.8566 13.23 26.0866 12.4367 26.1099 11.48L26.1099 5.16666C26.1099 4.89051 26.3337 4.66666 26.6099 4.66666H29.218Z" fill="#F49928"/>
<path d="M36.221 4.68681C36.4993 4.68856 36.7226 4.91721 36.7178 5.19548L36.6099 11.41C36.5866 12.3667 35.8166 13.1367 34.8599 13.1367H34.8366C33.8566 13.1133 33.0866 12.32 33.1099 11.3633V5.17037C33.1099 4.89299 33.3357 4.66863 33.613 4.67038L36.221 4.68681Z" fill="#F49928"/>
</svg>
