<svg width="56" height="56" viewBox="0 0 56 56" fill="none" xmlns="http://www.w3.org/2000/svg">
<path d="M45.5933 15.26L38.43 8.09666C36.2367 5.90332 33.2733 4.66666 30.17 4.66666H18.6667C11.6667 4.66666 7 9.33332 7 16.3333V39.6667C7 46.6667 11.6667 51.3333 18.6667 51.3333H37.3333C44.3333 51.3333 49 46.6667 49 39.6667V23.4967C49 20.3933 47.7633 17.43 45.5933 15.26ZM23.4033 40.7633C24.08 41.44 24.08 42.56 23.4033 43.2367C23.0533 43.5867 22.61 43.75 22.1667 43.75C21.7233 43.75 21.28 43.5867 20.93 43.2367L16.2633 38.57C15.5867 37.8933 15.5867 36.7733 16.2633 36.0967L20.93 31.43C21.6067 30.7533 22.7267 30.7533 23.4033 31.43C24.08 32.1067 24.08 33.2267 23.4033 33.9033L19.9733 37.3333L23.4033 40.7633ZM39.7367 38.57L35.07 43.2367C34.72 43.5867 34.2767 43.75 33.8333 43.75C33.39 43.75 32.9467 43.5867 32.5967 43.2367C31.92 42.56 31.92 41.44 32.5967 40.7633L36.0267 37.3333L32.5967 33.9033C31.92 33.2267 31.92 32.1067 32.5967 31.43C33.2733 30.7533 34.3933 30.7533 35.07 31.43L39.7367 36.0967C40.4133 36.7733 40.4133 37.8933 39.7367 38.57Z" fill="#F49928"/>
</svg>
