<svg width="56" height="56" viewBox="0 0 56 56" fill="none" xmlns="http://www.w3.org/2000/svg">
<path d="M50.3066 25.06L47.1332 21.3733C46.5266 20.6733 46.0366 19.3667 46.0366 18.4333V14.4667C46.0366 11.9933 44.0066 9.96333 41.5332 9.96333H37.5666C36.6566 9.96333 35.3266 9.47333 34.6266 8.86666L30.9399 5.69333C29.3299 4.31666 26.6932 4.31666 25.0599 5.69333L21.3966 8.88999C20.6966 9.47333 19.3666 9.96333 18.4566 9.96333H14.4199C11.9466 9.96333 9.91656 11.9933 9.91656 14.4667V18.4567C9.91656 19.3667 9.42656 20.6733 8.84322 21.3733L5.69322 25.0833C4.33989 26.6933 4.33989 29.3067 5.69322 30.9167L8.84322 34.6267C9.42656 35.3267 9.91656 36.6333 9.91656 37.5433V41.5333C9.91656 44.0067 11.9466 46.0367 14.4199 46.0367H18.4566C19.3666 46.0367 20.6966 46.5267 21.3966 47.1333L25.0832 50.3067C26.6932 51.6833 29.3299 51.6833 30.9632 50.3067L34.6499 47.1333C35.3499 46.5267 36.6566 46.0367 37.5899 46.0367H41.5566C44.0299 46.0367 46.0599 44.0067 46.0599 41.5333V37.5667C46.0599 36.6567 46.5499 35.3267 47.1566 34.6267L50.3299 30.94C51.6832 29.33 51.6832 26.67 50.3066 25.06ZM38.9199 28L36.1899 36.3067C35.8399 37.6833 34.3699 38.8033 32.8766 38.8033H28.5599C27.8132 38.8033 26.7632 38.5467 26.2966 38.08L22.8666 35.3967C22.7966 36.89 22.1199 37.52 20.4632 37.52H19.3432C17.6166 37.52 16.9166 36.8433 16.9166 35.21V24.0567C16.9166 22.4233 17.6166 21.7467 19.3432 21.7467H20.4866C22.2132 21.7467 22.9132 22.4233 22.9132 24.0567V24.8967L27.4399 18.1767C27.9066 17.4533 29.0966 16.94 30.0999 17.3367C31.1966 17.71 31.8966 18.9233 31.6632 19.9967L31.1032 23.6367C31.0566 23.9633 31.1266 24.2667 31.3366 24.5C31.5232 24.71 31.8032 24.85 32.1066 24.85H36.6566C37.5432 24.85 38.2899 25.2 38.7332 25.83C39.1299 26.4367 39.1999 27.2067 38.9199 28Z" fill="#F49928"/>
</svg>
