<svg width="56" height="56" viewBox="0 0 56 56" fill="none" xmlns="http://www.w3.org/2000/svg">
<path d="M11.6663 35C6.50967 35 2.33301 39.1767 2.33301 44.3333C2.33301 46.0833 2.82301 47.74 3.68634 49.14C5.29634 51.8467 8.25967 53.6667 11.6663 53.6667C15.073 53.6667 18.0363 51.8467 19.6463 49.14C20.5097 47.74 20.9997 46.0833 20.9997 44.3333C20.9997 39.1767 16.823 35 11.6663 35ZM16.263 43.5633L11.293 48.16C10.9663 48.4633 10.523 48.6267 10.103 48.6267C9.65967 48.6267 9.21634 48.4633 8.86634 48.1133L6.55634 45.8033C5.87967 45.1267 5.87967 44.0067 6.55634 43.33C7.23301 42.6533 8.35301 42.6533 9.02967 43.33L10.1497 44.45L13.883 40.9967C14.583 40.3433 15.703 40.39 16.3563 41.09C17.0097 41.79 16.963 42.91 16.263 43.5633Z" fill="#F49928"/>
<path d="M50.167 29.1667H44.3337C41.767 29.1667 39.667 31.2667 39.667 33.8333C39.667 36.4 41.767 38.5 44.3337 38.5H50.167C50.8203 38.5 51.3337 37.9867 51.3337 37.3333V30.3333C51.3337 29.68 50.8203 29.1667 50.167 29.1667Z" fill="#F49928"/>
<path d="M38.5698 12.6C39.2698 13.2767 38.6865 14.3267 37.7065 14.3267L18.3865 14.3033C17.2665 14.3033 16.7065 12.95 17.4998 12.1567L21.5832 8.05001C25.0365 4.62001 30.6132 4.62001 34.0665 8.05001L38.4765 12.5067C38.4998 12.53 38.5465 12.5767 38.5698 12.6Z" fill="#F49928"/>
<path d="M51.0295 43.54C49.6062 48.3467 45.4995 51.3333 39.8995 51.3333H24.7329C23.8229 51.3333 23.2395 50.33 23.6129 49.49C24.3129 47.8567 24.7562 46.0133 24.7562 44.3333C24.7562 37.2633 18.9929 31.5 11.9229 31.5C10.1495 31.5 8.42285 31.8733 6.83619 32.5733C5.97285 32.9467 4.92285 32.3633 4.92285 31.43V28C4.92285 21.6533 8.74952 17.22 14.6995 16.4733C15.2829 16.38 15.9129 16.3333 16.5662 16.3333H39.8995C40.5062 16.3333 41.0895 16.3567 41.6495 16.45C46.3629 16.9867 49.7695 19.8567 51.0295 24.1267C51.2629 24.8967 50.7028 25.6667 49.9095 25.6667H44.5662C39.5028 25.6667 35.4895 30.2867 36.5862 35.5367C37.3562 39.3633 40.9029 42 44.7995 42H49.9095C50.7262 42 51.2629 42.7933 51.0295 43.54Z" fill="#F49928"/>
</svg>
