<svg width="56" height="56" viewBox="0 0 56 56" fill="none" xmlns="http://www.w3.org/2000/svg">
<path d="M23.333 36.1667C22.3763 36.1667 21.583 36.96 21.583 37.9167V41.4167C21.583 42.3733 22.3763 43.1667 23.333 43.1667C24.2897 43.1667 25.083 42.3733 25.083 41.4167V37.9167C25.083 36.96 24.2897 36.1667 23.333 36.1667Z" fill="#F49928"/>
<path d="M51.3337 49.5833H49.0003V23.2867C49.0003 21.84 48.347 20.4867 47.2037 19.6L30.8703 6.90668C29.1903 5.57668 26.8103 5.57668 25.1303 6.90668L8.79699 19.6C7.65366 20.4867 7.00033 21.84 7.00033 23.2633L6.88366 49.5833H4.66699C3.71033 49.5833 2.91699 50.3533 2.91699 51.3333C2.91699 52.29 3.71033 53.0833 4.66699 53.0833H51.3337C52.2903 53.0833 53.0837 52.29 53.0837 51.3333C53.0837 50.3533 52.2903 49.5833 51.3337 49.5833ZM24.5003 15.75H31.5003C32.457 15.75 33.2503 16.5433 33.2503 17.5C33.2503 18.4567 32.457 19.25 31.5003 19.25H24.5003C23.5437 19.25 22.7503 18.4567 22.7503 17.5C22.7503 16.5433 23.5437 15.75 24.5003 15.75ZM39.667 49.5833H16.3337V29.1667C16.3337 27.23 17.897 25.6667 19.8337 25.6667H36.167C38.1037 25.6667 39.667 27.23 39.667 29.1667V49.5833Z" fill="#F49928"/>
</svg>
