<svg width="56" height="56" viewBox="0 0 56 56" fill="none" xmlns="http://www.w3.org/2000/svg">
<path d="M36.7498 4.66666C39.6495 4.66666 41.9998 7.01716 41.9998 9.91666V46.0833C41.9998 48.9827 39.6495 51.3333 36.7498 51.3333H19.25C16.3505 51.3333 14 48.9827 14 46.0833V9.91666C14 7.01716 16.3505 4.66666 19.25 4.66666H36.7498ZM30.9165 42H25.0832C24.1167 42 23.3332 42.7835 23.3332 43.75C23.3332 44.636 23.9916 45.3682 24.8459 45.4841L25.0832 45.5H30.9165C31.8832 45.5 32.6665 44.7165 32.6665 43.75C32.6665 42.7835 31.8832 42 30.9165 42ZM46.9668 17.6669C48.0777 17.2225 49.3279 17.6925 49.8842 18.7199L49.9997 18.9667L51.3591 22.365C52.2058 24.482 51.9653 26.8681 50.7379 28.7658L50.4598 29.1648L50.1068 29.6352C49.6793 30.2052 49.5388 30.9342 49.7131 31.6141L49.8072 31.9018L51.1663 35.3001C51.6449 36.4966 51.063 37.8546 49.8664 38.3332C48.7555 38.7774 47.5053 38.3075 46.9491 37.2801L46.8336 37.0333L45.4742 33.635C44.6274 31.518 44.868 29.1319 46.0953 27.2342L46.3734 26.8352L46.7265 26.3648C47.1539 25.7948 47.2944 25.0658 47.1201 24.3859L47.0261 24.0982L45.6669 20.6999C45.1883 19.5034 45.7703 18.1455 46.9668 17.6669ZM6.13338 17.6669C7.2444 17.2225 8.49464 17.6925 9.05077 18.7199L9.16639 18.9667L10.5257 22.365C11.3725 24.482 11.1321 26.8681 9.90449 28.7658L9.62638 29.1648L9.27353 29.6352C8.84602 30.2052 8.70558 30.9342 8.87976 31.6141L8.97375 31.9018L10.3331 35.3001C10.8117 36.4966 10.2297 37.8546 9.0332 38.3332C7.92216 38.7774 6.67194 38.3075 6.11581 37.2801L6.00017 37.0333L4.64086 33.635C3.79405 31.518 4.03452 29.1319 5.26209 27.2342L5.5402 26.8352L5.89305 26.3648C6.32056 25.7948 6.46098 25.0658 6.2868 24.3859L6.19281 24.0982L4.8335 20.6999C4.35491 19.5034 4.93687 18.1455 6.13338 17.6669Z" fill="#F49928"/>
<path d="M32.6201 16H23.3567C20.4401 16 18.0601 18.3567 18.0601 21.2967V30.56C18.0601 33.4767 20.4167 35.8567 23.3567 35.8567H32.6201C35.5367 35.8567 37.9167 33.5 37.9167 30.56V21.2967C37.9167 18.3567 35.5601 16 32.6201 16ZM31.5001 28.2033L29.4234 31.82C29.1201 32.3567 28.5601 32.6367 28.0001 32.6367C27.7201 32.6367 27.4167 32.5667 27.1834 32.4267C26.3901 31.9833 26.1101 30.98 26.5767 30.1867L28.0701 27.5967H26.7634C25.7134 27.5967 24.8501 27.13 24.3834 26.3367C23.9167 25.5433 23.9634 24.5633 24.5001 23.6533L26.5767 20.0367C27.0434 19.2433 28.0467 18.9867 28.8167 19.43C29.6101 19.8733 29.8901 20.8767 29.4234 21.67L27.9301 24.26H29.2367C30.2867 24.26 31.1501 24.7267 31.6167 25.52C32.0834 26.3133 32.0367 27.2933 31.5001 28.2033Z" fill="white"/>
</svg>
