<svg width="56" height="56" viewBox="0 0 56 56" fill="none" xmlns="http://www.w3.org/2000/svg">
<path d="M32.6201 18.0833H23.3567C20.4401 18.0833 18.0601 20.44 18.0601 23.38V32.6433C18.0601 35.56 20.4167 37.94 23.3567 37.94H32.6201C35.5367 37.94 37.9167 35.5833 37.9167 32.6433V23.38C37.9167 20.44 35.5601 18.0833 32.6201 18.0833ZM31.5001 30.2867L29.4234 33.9033C29.1201 34.44 28.5601 34.72 28.0001 34.72C27.7201 34.72 27.4167 34.65 27.1834 34.51C26.3901 34.0667 26.1101 33.0633 26.5767 32.27L28.0701 29.68H26.7634C25.7134 29.68 24.8501 29.2133 24.3834 28.42C23.9167 27.6267 23.9634 26.6467 24.5001 25.7367L26.5767 22.12C27.0434 21.3267 28.0467 21.07 28.8167 21.5133C29.6101 21.9567 29.8901 22.96 29.4234 23.7533L27.9301 26.3433H29.2367C30.2867 26.3433 31.1501 26.81 31.6167 27.6033C32.0834 28.3967 32.0367 29.3767 31.5001 30.2867Z" fill="#F49928"/>
<path d="M49.5832 29.75C50.5632 29.75 51.3332 28.9567 51.3332 28C51.3332 27.02 50.5632 26.25 49.5832 26.25H46.6665V21.1167H49.5832C50.5632 21.1167 51.3332 20.3467 51.3332 19.3667C51.3332 18.41 50.5632 17.6167 49.5832 17.6167H46.1298C45.0098 13.9067 42.0932 10.99 38.3832 9.86999V6.41666C38.3832 5.45999 37.5898 4.66666 36.6332 4.66666C35.6765 4.66666 34.8832 5.45999 34.8832 6.41666V9.33332H29.7498V6.41666C29.7498 5.45999 28.9565 4.66666 27.9998 4.66666C27.0432 4.66666 26.2498 5.45999 26.2498 6.41666V9.33332H21.1398V6.41666C21.1398 5.45999 20.3465 4.66666 19.3898 4.66666C18.4098 4.66666 17.6398 5.45999 17.6398 6.41666V9.86999C13.9065 10.99 10.9898 13.9067 9.86984 17.6167H6.4165C5.45984 17.6167 4.6665 18.41 4.6665 19.3667C4.6665 20.3467 5.45984 21.1167 6.4165 21.1167H9.33317V26.25H6.4165C5.45984 26.25 4.6665 27.02 4.6665 28C4.6665 28.9567 5.45984 29.75 6.4165 29.75H9.33317V34.8833H6.4165C5.45984 34.8833 4.6665 35.6533 4.6665 36.6333C4.6665 37.59 5.45984 38.3833 6.4165 38.3833H9.86984C10.9665 42.0933 13.9065 45.01 17.6398 46.13V49.5833C17.6398 50.54 18.4098 51.3333 19.3898 51.3333C20.3465 51.3333 21.1398 50.54 21.1398 49.5833V46.6667H26.2732V49.5833C26.2732 50.54 27.0432 51.3333 28.0232 51.3333C28.9798 51.3333 29.7732 50.54 29.7732 49.5833V46.6667H34.8832V49.5833C34.8832 50.54 35.6765 51.3333 36.6332 51.3333C37.5898 51.3333 38.3832 50.54 38.3832 49.5833V46.13C42.0932 45.01 45.0098 42.0933 46.1298 38.3833H49.5832C50.5632 38.3833 51.3332 37.59 51.3332 36.6333C51.3332 35.6533 50.5632 34.8833 49.5832 34.8833H46.6665V29.75H49.5832ZM40.2732 33.2733C40.2732 37.1233 37.1232 40.2733 33.2732 40.2733H22.7265C18.8765 40.2733 15.7265 37.1233 15.7265 33.2733V22.7267C15.7265 18.8767 18.8765 15.7267 22.7265 15.7267H33.2732C37.1232 15.7267 40.2732 18.8767 40.2732 22.7267V33.2733Z" fill="#F49928"/>
</svg>
