<svg width="56" height="56" viewBox="0 0 56 56" fill="none" xmlns="http://www.w3.org/2000/svg">
<path d="M28.0002 26.9033C21.5602 26.9033 16.3335 32.13 16.3335 38.57C16.3335 40.2967 16.7068 41.93 17.4068 43.3767C17.5935 43.7967 17.8035 44.1933 18.0368 44.5667C20.0435 47.95 23.7535 50.2367 28.0002 50.2367C32.2468 50.2367 35.9568 47.95 37.9635 44.5667C38.1968 44.1933 38.4068 43.7967 38.5935 43.3767C39.2935 41.93 39.6668 40.2967 39.6668 38.57C39.6668 32.13 34.4402 26.9033 28.0002 26.9033ZM31.5002 42.3267C31.1502 42.6767 30.7068 42.84 30.2635 42.84C29.8202 42.84 29.3768 42.6767 29.0268 42.3267L27.7902 41.09L26.5068 42.3733C26.1568 42.7233 25.7135 42.8867 25.2702 42.8867C24.8268 42.8867 24.3835 42.7233 24.0335 42.3733C23.3568 41.6967 23.3568 40.5767 24.0335 39.9L25.3168 38.6167L24.0802 37.38C23.4035 36.7033 23.4035 35.5833 24.0802 34.9067C24.7568 34.23 25.8768 34.23 26.5535 34.9067L27.7902 36.1433L28.9568 34.9767C29.6335 34.3 30.7535 34.3 31.4302 34.9767C32.1068 35.6533 32.1068 36.7733 31.4302 37.45L30.2635 38.6167L31.5002 39.8533C32.1768 40.5533 32.1768 41.65 31.5002 42.3267Z" fill="#F49928"/>
<path d="M47.1333 40.3433C46.2933 41.09 45.3833 41.72 44.4033 42.2333C43.5633 42.6533 42.7233 41.8367 42.8633 40.9033C42.9566 40.2267 43.0033 39.5267 43.0033 38.8033C43.0033 30.45 36.1899 23.6367 27.8366 23.6367C19.4833 23.6367 12.6699 30.45 12.6699 38.8033C12.6699 39.8767 12.7866 40.9033 12.9966 41.9067C13.1599 42.7233 12.5299 43.54 11.7133 43.33C2.49659 41.09 2.44992 26.9033 12.7633 26.1567H12.8799C5.38992 5.34334 36.9833 -2.98666 40.5999 18.9C50.7033 20.1833 54.7866 33.6467 47.1333 40.3433Z" fill="#F49928"/>
</svg>
