<svg width="56" height="56" viewBox="0 0 56 56" fill="none" xmlns="http://www.w3.org/2000/svg">
<path d="M47.8337 12.25H43.7503V8.16667C43.7503 7.21001 42.957 6.41667 42.0003 6.41667C41.0437 6.41667 40.2503 7.21001 40.2503 8.16667V12.25H36.167C35.2103 12.25 34.417 13.0433 34.417 14C34.417 14.9567 35.2103 15.75 36.167 15.75H40.2503V19.8333C40.2503 20.79 41.0437 21.5833 42.0003 21.5833C42.957 21.5833 43.7503 20.79 43.7503 19.8333V15.75H47.8337C48.7903 15.75 49.5837 14.9567 49.5837 14C49.5837 13.0433 48.7903 12.25 47.8337 12.25Z" fill="#F49928"/>
<path d="M25.7837 34.8833L21.467 39.2C20.557 40.11 19.1103 40.11 18.177 39.2233C17.9203 38.9667 17.6637 38.7333 17.407 38.4767C15.0037 36.05 12.8337 33.5067 10.897 30.8467C8.98366 28.1867 7.44366 25.5267 6.32366 22.89C5.22699 20.23 4.66699 17.6867 4.66699 15.26C4.66699 13.6733 4.94699 12.1567 5.50699 10.7567C6.06699 9.33334 6.95366 8.02667 8.19033 6.86001C9.68366 5.39001 11.317 4.66667 13.0437 4.66667C13.697 4.66667 14.3503 4.80667 14.9337 5.08667C15.5403 5.36667 16.077 5.78667 16.497 6.39334L21.9103 14.0233C22.3303 14.6067 22.6337 15.1433 22.8437 15.6567C23.0537 16.1467 23.1703 16.6367 23.1703 17.08C23.1703 17.64 23.007 18.2 22.6803 18.7367C22.377 19.2733 21.9337 19.8333 21.3737 20.3933L19.6003 22.2367C19.3437 22.4933 19.227 22.7967 19.227 23.17C19.227 23.3567 19.2503 23.52 19.297 23.7067C19.367 23.8933 19.437 24.0333 19.4837 24.1733C19.9037 24.9433 20.627 25.9467 21.6537 27.16C22.7037 28.3733 23.8237 29.61 25.037 30.8467C25.2703 31.08 25.527 31.3133 25.7603 31.5467C26.6937 32.4567 26.717 33.95 25.7837 34.8833Z" fill="#F49928"/>
<path d="M51.2637 42.77C51.2637 43.4233 51.1471 44.1 50.9137 44.7533C50.8437 44.94 50.7737 45.1267 50.6804 45.3133C50.2837 46.1533 49.7704 46.9467 49.0937 47.6933C47.9504 48.9533 46.6904 49.8633 45.2671 50.4467C45.2437 50.4467 45.2204 50.47 45.1971 50.47C43.8204 51.03 42.3271 51.3333 40.7171 51.3333C38.3371 51.3333 35.7937 50.7733 33.1104 49.63C30.4271 48.4867 27.7437 46.9467 25.0837 45.01C24.1737 44.3333 23.2637 43.6567 22.4004 42.9333L30.0304 35.3033C30.6837 35.7933 31.2671 36.1667 31.7571 36.4233C31.8737 36.47 32.0137 36.54 32.1771 36.61C32.3637 36.68 32.5504 36.7033 32.7604 36.7033C33.1571 36.7033 33.4604 36.5633 33.7171 36.3067L35.4904 34.5567C36.0737 33.9733 36.6337 33.53 37.1704 33.25C37.7071 32.9233 38.2437 32.76 38.8271 32.76C39.2704 32.76 39.7371 32.8533 40.2504 33.0633C40.7637 33.2733 41.3004 33.5767 41.8837 33.9733L49.6071 39.4567C50.2137 39.8767 50.6337 40.3667 50.8904 40.95C51.1237 41.5333 51.2637 42.1167 51.2637 42.77Z" fill="#F49928"/>
</svg>
