<svg width="56" height="56" viewBox="0 0 56 56" fill="none" xmlns="http://www.w3.org/2000/svg">
<path d="M35.6751 43.7397C36.0619 43.5486 36.5201 43.8818 36.434 44.3046L36.143 45.7333C34.9996 50.1667 32.433 51.3333 29.283 51.3333H26.7396C23.5896 51.3333 20.9996 50.1667 19.8796 45.71L19.6002 44.2862C19.5177 43.866 19.9709 43.537 20.3552 43.7259C22.7183 44.8875 25.3139 45.5 27.9996 45.5C30.7003 45.5 33.3112 44.908 35.6751 43.7397Z" fill="#F49928"/>
<path d="M36.4485 11.7281C36.5373 12.1528 36.0755 12.4888 35.6874 12.2948C33.3777 11.1396 30.7686 10.5 27.9995 10.5C25.2461 10.5 22.6531 11.1418 20.3453 12.2852C19.959 12.4765 19.5019 12.1437 19.588 11.7213L19.8795 10.29C20.9995 5.83334 23.5895 4.66667 26.7395 4.66667H29.2829C32.4329 4.66667 34.9995 5.83334 36.1429 10.2667L36.4485 11.7281Z" fill="#F49928"/>
<path d="M27.9997 12.8333C19.623 12.8333 12.833 19.6233 12.833 28C12.833 32.9 15.143 37.24 18.7363 40.0167H18.7597C21.3263 42 24.523 43.1667 27.9997 43.1667C31.523 43.1667 34.743 41.9767 37.3097 39.97H37.333C40.8797 37.1933 43.1663 32.8533 43.1663 28C43.1663 19.6233 36.3763 12.8333 27.9997 12.8333ZM32.503 33.5533C32.153 33.9033 31.7097 34.0667 31.2663 34.0667C30.823 34.0667 30.3797 33.9033 30.0297 33.5533L26.763 30.2867C26.4363 29.96 26.2497 29.5167 26.2497 29.05V22.54C26.2497 21.5833 27.043 20.79 27.9997 20.79C28.9563 20.79 29.7497 21.5833 29.7497 22.54V28.3267L32.503 31.08C33.1797 31.7567 33.1797 32.8767 32.503 33.5533Z" fill="#F49928"/>
</svg>
