<svg width="56" height="56" viewBox="0 0 56 56" fill="none" xmlns="http://www.w3.org/2000/svg">
<path d="M39.667 9.33333H16.3337C9.33366 9.33333 4.66699 12.8333 4.66699 21V29.3067C4.66699 30.17 5.55366 30.7067 6.32366 30.3567C8.61033 29.3067 11.247 28.91 14.0237 29.4C20.1603 30.4967 24.6637 36.19 24.5003 42.42C24.477 43.4 24.337 44.3567 24.0803 45.29C23.8937 46.0133 24.477 46.69 25.2237 46.69H39.667C46.667 46.69 51.3337 43.19 51.3337 35.0233V21C51.3337 12.8333 46.667 9.33333 39.667 9.33333ZM28.0003 33.8333C24.7803 33.8333 22.167 31.22 22.167 28C22.167 24.78 24.7803 22.1667 28.0003 22.1667C31.2203 22.1667 33.8337 24.78 33.8337 28C33.8337 31.22 31.2203 33.8333 28.0003 33.8333ZM44.917 32.6667C44.917 33.6233 44.1237 34.4167 43.167 34.4167C42.2103 34.4167 41.417 33.6233 41.417 32.6667V23.3333C41.417 22.3767 42.2103 21.5833 43.167 21.5833C44.1237 21.5833 44.917 22.3767 44.917 23.3333V32.6667Z" fill="#F49928"/>
<path d="M11.6663 32.6667C6.50967 32.6667 2.33301 36.8433 2.33301 42C2.33301 43.75 2.82301 45.4067 3.68634 46.8067C5.29634 49.5133 8.25967 51.3333 11.6663 51.3333C15.073 51.3333 18.0363 49.5133 19.6463 46.8067C20.5097 45.4067 20.9997 43.75 20.9997 42C20.9997 36.8433 16.823 32.6667 11.6663 32.6667ZM16.263 41.23L11.293 45.8267C10.9663 46.13 10.523 46.2933 10.103 46.2933C9.65967 46.2933 9.21634 46.13 8.86634 45.78L6.55634 43.47C5.87967 42.7933 5.87967 41.6733 6.55634 40.9967C7.23301 40.32 8.35301 40.32 9.02967 40.9967L10.1497 42.1167L13.883 38.6633C14.583 38.01 15.703 38.0567 16.3563 38.7567C17.0097 39.4567 16.963 40.5767 16.263 41.23Z" fill="#F49928"/>
</svg>
