<svg width="56" height="56" viewBox="0 0 56 56" fill="none" xmlns="http://www.w3.org/2000/svg">
<path d="M39.667 5.67H16.3337C9.33366 5.67 4.66699 10.3367 4.66699 17.3367V31.3367C4.66699 38.3367 9.33366 43.0033 16.3337 43.0033V47.9733C16.3337 49.84 18.4103 50.96 19.9503 49.91L30.3337 43.0033H39.667C46.667 43.0033 51.3337 38.3367 51.3337 31.3367V17.3367C51.3337 10.3367 46.667 5.67 39.667 5.67ZM28.0003 34.0667C27.0203 34.0667 26.2503 33.2733 26.2503 32.3167C26.2503 31.36 27.0203 30.5667 28.0003 30.5667C28.9803 30.5667 29.7503 31.36 29.7503 32.3167C29.7503 33.2733 28.9803 34.0667 28.0003 34.0667ZM30.9403 24.3833C30.0303 24.99 29.7503 25.3867 29.7503 26.04V26.53C29.7503 27.4867 28.957 28.28 28.0003 28.28C27.0437 28.28 26.2503 27.4867 26.2503 26.53V26.04C26.2503 23.3333 28.2337 22.0033 28.9803 21.49C29.8437 20.9067 30.1237 20.51 30.1237 19.9033C30.1237 18.7367 29.167 17.78 28.0003 17.78C26.8337 17.78 25.877 18.7367 25.877 19.9033C25.877 20.86 25.0837 21.6533 24.127 21.6533C23.1703 21.6533 22.377 20.86 22.377 19.9033C22.377 16.8 24.897 14.28 28.0003 14.28C31.1037 14.28 33.6237 16.8 33.6237 19.9033C33.6237 22.5633 31.6637 23.8933 30.9403 24.3833Z" fill="#F49928"/>
</svg>
