<svg width="56" height="56" viewBox="0 0 56 56" fill="none" xmlns="http://www.w3.org/2000/svg">
<path d="M36.8203 4.66667H19.1803C10.3603 4.66667 8.16699 7.02333 8.16699 16.4267V42.7C8.16699 48.9067 11.5737 50.3767 15.7037 45.9433L15.727 45.92C17.6403 43.89 20.557 44.0533 22.2137 46.27L24.5703 49.42C26.4603 51.9167 29.517 51.9167 31.407 49.42L33.7637 46.27C35.4437 44.03 38.3603 43.8667 40.2737 45.92C44.427 50.3533 47.8103 48.8833 47.8103 42.6767V16.4267C47.8337 7.02333 45.6403 4.66667 36.8203 4.66667ZM34.417 25.0833H21.5837C20.627 25.0833 19.8337 24.29 19.8337 23.3333C19.8337 22.3767 20.627 21.5833 21.5837 21.5833H34.417C35.3737 21.5833 36.167 22.3767 36.167 23.3333C36.167 24.29 35.3737 25.0833 34.417 25.0833Z" fill="#F49928"/>
</svg>
