<svg width="48" height="48" viewBox="0 0 48 48" fill="none" xmlns="http://www.w3.org/2000/svg">
<path d="M32 19.5H16C14.62 19.5 13.5 20.62 13.5 22V24.1C13.56 24.08 13.6 24.06 13.66 24.04C13.9 23.92 14.16 23.84 14.42 23.76C14.54 23.72 14.66 23.68 14.8 23.64C15.2 23.56 15.6 23.5 16.02 23.5H32.02C32.44 23.5 32.84 23.56 33.24 23.64C33.36 23.66 33.48 23.72 33.62 23.76C33.88 23.84 34.14 23.92 34.38 24.04C34.44 24.06 34.5 24.08 34.54 24.1V22C34.5 20.62 33.38 19.5 32 19.5Z" fill="#F49928"/>
<path d="M32 26.5H16C14.62 26.5 13.5 27.62 13.5 29V30H19C19.82 30 20.5 30.68 20.5 31.5C20.5 33.42 22.08 35 24 35C25.92 35 27.5 33.42 27.5 31.5C27.5 30.68 28.18 30 29 30H34.5V29C34.5 27.62 33.38 26.5 32 26.5Z" fill="#F49928"/>
<path d="M32 13H16C14.62 13 13.5 14.12 13.5 15.5V17.12C14.26 16.74 15.1 16.5 16 16.5H32C32.9 16.5 33.74 16.74 34.5 17.12V15.5C34.5 14.12 33.38 13 32 13Z" fill="#F49928"/>
<path d="M32.38 4H15.62C8.34 4 4 8.34 4 15.62V32.36C4 39.66 8.34 44 15.62 44H32.36C39.64 44 43.98 39.66 43.98 32.38V15.62C44 8.34 39.66 4 32.38 4ZM38 33H36H30.32C29.64 35.86 27.06 38 24 38C20.94 38 18.36 35.86 17.68 33H12H10C9.18 33 8.5 32.32 8.5 31.5C8.5 30.68 9.18 30 10 30H10.5V29V28V22V15.5C10.5 12.46 12.96 10 16 10H32C35.04 10 37.5 12.46 37.5 15.5V22V28V29V30H38C38.82 30 39.5 30.68 39.5 31.5C39.5 32.32 38.82 33 38 33Z" fill="#F49928"/>
</svg>
