<svg width="24" height="24" viewBox="0 0 24 24" fill="none" xmlns="http://www.w3.org/2000/svg">
<path d="M8.38989 18.49V8.33001C8.38989 7.93001 8.50989 7.54001 8.72989 7.21001L11.4599 3.15001C11.8899 2.50001 12.9599 2.04001 13.8699 2.38001C14.8499 2.71001 15.4999 3.81001 15.2899 4.79001L14.7699 8.06001C14.7299 8.36001 14.8099 8.63001 14.9799 8.84001C15.1499 9.03001 15.3999 9.15001 15.6699 9.15001H19.7799C20.5699 9.15001 21.2499 9.47001 21.6499 10.03C22.0299 10.57 22.0999 11.27 21.8499 11.98L19.3899 19.47C19.0799 20.71 17.7299 21.72 16.3899 21.72H12.4899C11.8199 21.72 10.8799 21.49 10.4499 21.06L9.16989 20.07C8.67989 19.7 8.38989 19.11 8.38989 18.49Z" fill="#F49928"/>
<path d="M5.21 6.38H4.18C2.63 6.38 2 6.98 2 8.46V18.52C2 20 2.63 20.6 4.18 20.6H5.21C6.76 20.6 7.39 20 7.39 18.52V8.46C7.39 6.98 6.76 6.38 5.21 6.38Z" fill="#F49928"/>
</svg>
