<svg width="56" height="56" viewBox="0 0 56 56" fill="none" xmlns="http://www.w3.org/2000/svg">
<path d="M17.8967 4.66666H13.4867C11.0601 4.66666 8.86675 5.64666 7.25675 7.25666C5.64675 8.86666 4.66675 11.06 4.66675 13.4867C4.66675 18.34 8.63342 22.3067 13.4867 22.3067H15.6801V39.9233C15.6801 41.6267 16.6601 43.0967 18.0834 43.82C18.6667 44.1467 19.3667 44.3333 20.0901 44.3333C20.6034 44.3333 21.1167 44.24 21.5834 44.0533C23.2867 43.4467 24.5001 41.8367 24.5001 39.9233V11.27C24.5001 7.65333 21.5134 4.66666 17.8967 4.66666ZM13.4867 13.93C14.4434 13.93 15.2367 14.7233 15.2367 15.68C15.2367 16.6367 14.4434 17.43 13.4867 17.43C11.3167 17.43 9.54342 15.6567 9.54342 13.4633C9.54342 11.27 11.3167 9.52 13.4867 9.52C14.4434 9.52 15.2367 10.3133 15.2367 11.27C15.2367 12.2267 14.4434 13.02 13.4867 13.02C13.2301 13.02 13.0434 13.23 13.0434 13.4633C13.0434 13.6967 13.2301 13.93 13.4867 13.93Z" fill="#F49928"/>
<path d="M48.7433 7.25666C47.1333 5.64666 44.94 4.66666 42.5133 4.66666H38.1033C34.4633 4.66666 31.5 7.65333 31.5 11.27V39.9233C31.5 41.8367 32.7133 43.4467 34.4167 44.0533C34.8833 44.24 35.3967 44.3333 35.91 44.3333C36.6333 44.3333 37.3333 44.1467 37.9167 43.82C39.34 43.0967 40.32 41.6267 40.32 39.9233V22.3067H42.5133C47.3667 22.3067 51.3333 18.34 51.3333 13.4867C51.3333 11.06 50.3533 8.86666 48.7433 7.25666ZM42.5133 17.43C41.5567 17.43 40.7633 16.6367 40.7633 15.68C40.7633 14.7233 41.5567 13.93 42.5133 13.93C42.77 13.93 42.9567 13.72 42.9567 13.4633C42.9567 13.2067 42.7467 13.02 42.5133 13.02C41.5567 13.02 40.7633 12.2267 40.7633 11.27C40.7633 10.3133 41.5567 9.52 42.5133 9.52C44.6833 9.52 46.4567 11.2933 46.4567 13.4633C46.4567 15.6333 44.7067 17.43 42.5133 17.43Z" fill="#F49928"/>
<path d="M21.5833 44.0533V51.3333C21.5833 52.29 20.7899 53.0833 19.8333 53.0833C18.8766 53.0833 18.0833 52.29 18.0833 51.3333V43.82C18.6666 44.1467 19.3666 44.3333 20.0899 44.3333C20.6033 44.3333 21.1166 44.24 21.5833 44.0533Z" fill="#F49928"/>
<path d="M37.9167 43.82V51.3333C37.9167 52.29 37.1234 53.0833 36.1667 53.0833C35.2101 53.0833 34.4167 52.29 34.4167 51.3333V44.0533C34.8834 44.24 35.3967 44.3333 35.9101 44.3333C36.6334 44.3333 37.3334 44.1467 37.9167 43.82Z" fill="#F49928"/>
</svg>
