<svg width="56" height="56" viewBox="0 0 56 56" fill="none" xmlns="http://www.w3.org/2000/svg">
<path d="M11.6666 35C9.47325 35 7.44325 35.77 5.83325 37.0533C3.68659 38.7567 2.33325 41.3933 2.33325 44.3333C2.33325 46.0833 2.82325 47.74 3.68659 49.14C5.29659 51.8467 8.25992 53.6667 11.6666 53.6667C14.0233 53.6667 16.1699 52.8033 17.8033 51.3333C18.5266 50.7267 19.1566 49.98 19.6466 49.14C20.5099 47.74 20.9999 46.0833 20.9999 44.3333C20.9999 39.1767 16.8233 35 11.6666 35ZM16.4966 43.33L11.5266 47.9267C11.1999 48.23 10.7566 48.3933 10.3366 48.3933C9.89325 48.3933 9.44992 48.23 9.09992 47.88L6.78992 45.57C6.11325 44.8933 6.11325 43.7733 6.78992 43.0967C7.46659 42.42 8.58659 42.42 9.26325 43.0967L10.3833 44.2167L14.1166 40.7633C14.8166 40.11 15.9366 40.1567 16.5899 40.8567C17.2433 41.5567 17.1966 42.6767 16.4966 43.33Z" fill="#F49928"/>
<path d="M34.6499 9.21667V18.0833H31.1499V9.21667C31.1499 8.58667 30.5899 8.28333 30.2166 8.28333C30.0999 8.28333 29.9833 8.30667 29.8666 8.35333L11.3633 15.33C10.1266 15.7967 9.33325 16.9633 9.33325 18.2933V19.8567C7.20992 21.4433 5.83325 23.9867 5.83325 26.8567V18.2933C5.83325 15.5167 7.53659 13.0433 10.1266 12.0633L28.6532 5.06333C29.1666 4.87667 29.7033 4.78333 30.2166 4.78333C32.5499 4.78333 34.6499 6.67333 34.6499 9.21667Z" fill="#F49928"/>
<path d="M50.1667 33.8333V36.1667C50.1667 36.7967 49.6767 37.31 49.0233 37.3333H45.6167C44.38 37.3333 43.26 36.4233 43.1667 35.21C43.0967 34.4867 43.3767 33.81 43.8433 33.3433C44.2633 32.9 44.8467 32.6667 45.4767 32.6667H49C49.6767 32.69 50.1667 33.2033 50.1667 33.8333Z" fill="#F49928"/>
<path d="M45.4533 30.2167H47.8333C49.1166 30.2167 50.1666 29.1667 50.1666 27.8833V26.8567C50.1666 22.0267 46.2233 18.0833 41.3933 18.0833H14.6066C12.6233 18.0833 10.8033 18.7367 9.33325 19.8567C7.20992 21.4433 5.83325 23.9867 5.83325 26.8567V31.01C5.83325 31.8967 6.76659 32.4567 7.60659 32.1767C8.91325 31.7333 10.2899 31.5 11.6666 31.5C18.7366 31.5 24.4999 37.2633 24.4999 44.3333C24.4999 46.0133 24.0566 47.8567 23.3566 49.49C22.9833 50.33 23.5666 51.3333 24.4766 51.3333H41.3933C46.2233 51.3333 50.1666 47.39 50.1666 42.56V42.1167C50.1666 40.8333 49.1166 39.7833 47.8333 39.7833H45.8033C43.5633 39.7833 41.4166 38.4067 40.8333 36.2367C40.3666 34.4633 40.9266 32.7367 42.0933 31.6167C42.9566 30.73 44.1466 30.2167 45.4533 30.2167ZM32.6666 29.75H20.9999C20.0433 29.75 19.2499 28.9567 19.2499 28C19.2499 27.0433 20.0433 26.25 20.9999 26.25H32.6666C33.6233 26.25 34.4166 27.0433 34.4166 28C34.4166 28.9567 33.6233 29.75 32.6666 29.75Z" fill="#F49928"/>
</svg>
