<svg width="56" height="56" viewBox="0 0 56 56" fill="none" xmlns="http://www.w3.org/2000/svg">
<path d="M41.0667 12.39L27.8834 5.29666C26.4834 4.55 24.8267 4.55 23.4267 5.29666L10.2667 12.39C9.31004 12.9267 8.70337 13.9533 8.70337 15.0733C8.70337 16.2167 9.2867 17.2433 10.2667 17.7567L23.45 24.85C24.15 25.2233 24.92 25.41 25.6667 25.41C26.4134 25.41 27.2067 25.2233 27.8834 24.85L41.0667 17.7567C42.0234 17.2433 42.63 16.2167 42.63 15.0733C42.63 13.9533 42.0234 12.9267 41.0667 12.39Z" fill="#F49928"/>
<path d="M21.2801 27.3233L9.03008 21.21C8.07341 20.72 7.00008 20.79 6.09008 21.3267C5.20341 21.8867 4.66675 22.8433 4.66675 23.8933V35.4667C4.66675 37.4733 5.78675 39.27 7.58342 40.18L19.8334 46.2933C20.2534 46.5033 20.7201 46.62 21.1867 46.62C21.7234 46.62 22.2834 46.4567 22.7734 46.1767C23.6601 45.6167 24.1967 44.66 24.1967 43.61V32.0367C24.1734 30.03 23.0534 28.2333 21.2801 27.3233Z" fill="#F49928"/>
<path d="M46.6668 23.8933V29.6333C45.5468 29.3067 44.3568 29.1667 43.1668 29.1667C39.9935 29.1667 36.8902 30.2633 34.4402 32.2233C31.0802 34.86 29.1668 38.85 29.1668 43.1667C29.1668 44.31 29.3068 45.4533 29.6102 46.55C29.2602 46.5033 28.9102 46.3633 28.5835 46.1533C27.6968 45.6167 27.1602 44.66 27.1602 43.61V32.0367C27.1602 30.03 28.2802 28.2333 30.0535 27.3233L42.3035 21.21C43.2602 20.72 44.3335 20.79 45.2435 21.3267C46.1302 21.8867 46.6668 22.8433 46.6668 23.8933Z" fill="#F49928"/>
<path d="M51.2867 36.5633C49.3734 34.2067 46.4567 32.7133 43.1667 32.7133C40.6934 32.7133 38.4067 33.5767 36.6101 35.0233C34.1834 36.9367 32.6667 39.9 32.6667 43.2133C32.6667 45.1733 33.2267 47.04 34.1834 48.6267C34.8134 49.6767 35.6067 50.5867 36.5401 51.3333H36.5634C38.3601 52.8267 40.6701 53.7133 43.1667 53.7133C45.8267 53.7133 48.2301 52.7333 50.0734 51.1C50.8901 50.4 51.5901 49.56 52.1501 48.6267C53.1067 47.04 53.6667 45.1733 53.6667 43.2133C53.6667 40.6933 52.7801 38.36 51.2867 36.5633ZM48.4401 41.9067L42.8401 47.0867C42.5134 47.39 42.0701 47.5533 41.6501 47.5533C41.2067 47.5533 40.7634 47.39 40.4134 47.04L37.8234 44.45C37.1467 43.7733 37.1467 42.6533 37.8234 41.9767C38.5001 41.3 39.6201 41.3 40.2967 41.9767L41.6967 43.3767L46.0601 39.34C46.7601 38.6867 47.8801 38.7333 48.5334 39.4333C49.2101 40.1567 49.1634 41.2533 48.4401 41.9067Z" fill="#F49928"/>
</svg>
